<svg id="Capa_1" enable-background="new 0 0 480.012 480.012" height="512" viewBox="0 0 480.012 480.012" width="512" xmlns="http://www.w3.org/2000/svg"><path d="m450.224 83.608c-55.545-85.176-169.622-109.196-254.798-53.651-36.581 23.856-63.492 59.938-75.926 101.803l15.346 4.528c4.198-14.182 10.269-27.74 18.054-40.315h57.481c-4.034 16.882-6.911 34.021-8.61 51.295l15.924 1.554c1.752-17.817 4.811-35.481 9.152-52.849h61.153v77h16v-77h61.193c6.555 26.183 10.167 53.016 10.769 80h-55.962v16h55.962c-.602 26.984-4.214 53.817-10.769 80h-46.193v16h41.81c-6.05 20.22-13.8 39.892-23.166 58.806-8.646 2.198-17.453 3.704-26.338 4.506l1.439 15.936c101.208-9.258 175.748-98.808 166.49-200.016-2.727-29.811-12.685-58.506-29.011-83.597zm-235.67-3.635h-50.5c18.17-23.13 42.115-41.063 69.423-51.992-7.534 16.859-13.858 34.234-18.923 51.992zm73.446 0h-56.781c6.045-20.216 13.785-39.886 23.139-58.8 11.017-2.794 22.288-4.467 33.642-4.992zm175.788 96h-71.807c-.576-26.958-4.031-53.777-10.307-80h57.419c14.886 24.139 23.384 51.67 24.695 80zm-159.788-96v-63.792c11.355.525 22.628 2.196 33.646 4.99 9.365 18.913 17.114 38.583 23.164 58.802zm54.542-51.982c27.298 10.93 51.234 28.859 69.399 51.982h-50.46c-5.07-17.756-11.399-35.127-18.939-51.982zm24.979 299.412c-7.964 4.874-16.321 9.076-24.983 12.562 7.542-16.858 13.872-34.233 18.943-51.992h50.432c-12.365 15.65-27.392 28.997-44.392 39.43zm55.572-55.43h-57.419c6.276-26.223 9.731-53.042 10.307-80h71.807c-1.311 28.33-9.81 55.86-24.695 80z"/><path d="m296 191.973h-8.8c-48.613.132-95.258-19.189-129.539-53.657-3.124-3.124-8.189-3.124-11.314 0-34.283 34.47-80.931 53.791-129.547 53.657h-8.8c-4.418 0-8 3.582-8 8v79.5c.022 72.335 39.236 138.98 102.458 174.128l45.657 25.365c2.416 1.342 5.354 1.342 7.77 0l45.657-25.365c63.222-35.149 102.436-101.793 102.458-174.128v-79.5c0-4.419-3.582-8-8-8zm-8 87.5c-.022 66.525-36.086 127.815-94.228 160.142l-41.772 23.206-41.772-23.206c-58.142-32.327-94.206-93.618-94.228-160.142v-71.5h.8c26.161.026 52.069-5.128 76.229-15.163 21.742-8.978 41.711-21.756 58.971-37.737 36.809 34.011 85.084 52.9 135.2 52.9h.8z"/><path d="m264.816 222.831c-39.246-4.014-76.613-18.819-107.959-42.773-2.867-2.191-6.847-2.191-9.714 0-31.346 23.954-68.713 38.759-107.959 42.773-4.081.418-7.184 3.856-7.184 7.958v48.684c.02 60.715 32.935 116.654 86 146.157l30.117 16.731c2.416 1.342 5.354 1.342 7.77 0l30.113-16.731c53.065-29.503 85.98-85.442 86-146.157v-48.684c0-4.103-3.103-7.54-7.184-7.958zm-8.816 56.642c-.018 54.905-29.782 105.49-77.768 132.171l-26.232 14.572-26.232-14.572c-47.986-26.681-77.75-77.266-77.768-132.171v-41.577c37.562-5.042 73.291-19.304 104-41.513 30.709 22.209 66.438 36.471 104 41.513z"/><path d="m144 215.973h16v16h-16z"/><path d="m144 391.973h16v16h-16z"/><path d="m64 247.973h16v16h-16z"/><path d="m80 327.973h16v16h-16z"/><path d="m208 327.973h16v16h-16z"/><path d="m224 247.973h16v16h-16z"/></svg>