<svg id="svg" version="1.1" xmlns="http://www.w3.org/2000/svg" xmlns:xlink="http://www.w3.org/1999/xlink" width="400" height="400" viewBox="0, 0, 400,400"><g id="svgg"><path id="path0" d="M125.200 200.000 L 125.200 299.600 171.500 299.588 C 218.452 299.575,222.704 299.465,232.200 298.013 C 233.520 297.811,235.549 297.522,236.708 297.371 C 237.868 297.220,238.914 296.940,239.032 296.748 C 239.150 296.557,239.629 296.400,240.095 296.400 C 240.985 296.400,241.426 296.277,246.600 294.582 C 255.259 291.746,262.822 287.285,268.202 281.837 C 271.172 278.831,273.200 276.543,273.200 276.199 C 273.200 276.085,273.793 275.139,274.517 274.096 C 281.624 263.866,284.712 245.736,281.961 230.400 C 281.744 229.190,281.464 227.613,281.339 226.896 C 281.214 226.179,280.951 225.494,280.756 225.373 C 280.560 225.252,280.400 224.807,280.400 224.384 C 280.400 223.323,276.489 215.223,275.579 214.400 C 275.457 214.290,274.827 213.480,274.179 212.600 C 269.941 206.845,263.539 202.366,255.254 199.361 C 252.205 198.255,251.539 197.745,252.633 197.349 C 258.648 195.170,271.600 180.168,271.600 175.378 C 271.600 175.054,271.762 174.477,271.961 174.095 C 272.317 173.411,272.685 172.073,273.566 168.271 C 275.171 161.339,274.784 148.474,272.769 141.772 C 272.566 141.096,272.400 140.162,272.400 139.695 C 272.400 139.229,272.220 138.736,272.000 138.600 C 271.780 138.464,271.600 138.055,271.600 137.692 C 271.600 136.634,268.045 129.638,266.065 126.800 C 261.396 120.106,252.773 113.391,242.400 108.371 C 240.090 107.254,237.887 106.173,237.505 105.969 C 237.123 105.766,236.459 105.600,236.029 105.600 C 235.599 105.600,235.149 105.441,235.030 105.248 C 234.910 105.054,234.404 104.806,233.906 104.696 C 233.408 104.586,231.920 104.186,230.600 103.806 C 219.599 100.642,215.749 100.436,167.300 100.417 L 125.200 100.400 125.200 200.000 M212.684 133.218 C 227.846 135.253,237.784 150.643,232.431 163.800 C 229.969 169.851,226.314 174.097,221.200 176.848 C 216.369 179.446,214.002 179.671,193.000 179.525 L 175.000 179.400 174.897 156.645 C 174.822 140.172,174.918 133.740,175.246 133.345 C 175.813 132.661,207.729 132.553,212.684 133.218 M222.860 217.100 C 223.135 217.375,223.729 217.603,224.180 217.606 C 229.403 217.641,239.099 227.349,240.868 234.314 C 241.076 235.131,241.433 236.520,241.661 237.400 C 242.447 240.420,241.709 247.761,240.346 250.495 C 240.156 250.877,240.000 251.462,240.000 251.795 C 240.000 252.128,239.820 252.400,239.600 252.400 C 239.380 252.400,239.200 252.691,239.200 253.046 C 239.200 253.960,236.640 257.430,234.169 259.864 C 230.155 263.819,225.671 265.927,219.471 266.773 C 214.878 267.400,175.913 267.353,175.280 266.720 C 174.744 266.184,174.555 217.178,175.087 216.646 C 175.632 216.102,222.305 216.545,222.860 217.100 " stroke="none" fill="#fbfbfb" fill-rule="evenodd"></path><path id="path1" d="M85.600 49.600 C 85.600 49.820,84.621 50.000,83.424 50.000 C 82.227 50.000,81.136 50.180,81.000 50.400 C 80.864 50.620,80.121 50.800,79.348 50.800 C 78.575 50.800,77.673 51.070,77.343 51.400 C 77.013 51.730,76.396 52.000,75.971 52.000 C 75.547 52.000,75.200 52.180,75.200 52.400 C 75.200 52.620,74.750 52.800,74.200 52.800 C 73.650 52.800,73.200 52.980,73.200 53.200 C 73.200 53.420,72.765 53.600,72.233 53.600 C 71.702 53.600,71.207 53.735,71.133 53.900 C 71.060 54.065,70.460 54.510,69.800 54.890 C 69.140 55.269,68.633 55.727,68.672 55.907 C 68.712 56.087,68.389 56.261,67.955 56.293 C 67.520 56.326,66.651 56.904,66.022 57.576 C 65.393 58.249,64.693 58.800,64.466 58.800 C 63.962 58.800,58.800 64.010,58.800 64.518 C 58.800 64.716,58.249 65.393,57.576 66.022 C 56.904 66.651,56.326 67.520,56.293 67.955 C 56.261 68.389,56.087 68.712,55.907 68.672 C 55.727 68.633,55.269 69.140,54.890 69.800 C 54.510 70.460,54.065 71.060,53.900 71.133 C 53.735 71.207,53.600 71.702,53.600 72.233 C 53.600 72.765,53.420 73.200,53.200 73.200 C 52.980 73.200,52.800 73.650,52.800 74.200 C 52.800 74.750,52.634 75.200,52.432 75.200 C 52.229 75.200,51.945 75.740,51.800 76.400 C 51.655 77.060,51.371 77.600,51.168 77.600 C 50.966 77.600,50.800 78.309,50.800 79.176 C 50.800 80.043,50.620 80.864,50.400 81.000 C 50.180 81.136,50.000 82.227,50.000 83.424 C 50.000 84.621,49.820 85.600,49.600 85.600 C 49.334 85.600,49.200 124.000,49.200 200.000 C 49.200 276.000,49.334 314.400,49.600 314.400 C 49.820 314.400,50.000 315.379,50.000 316.576 C 50.000 317.773,50.180 318.864,50.400 319.000 C 50.620 319.136,50.800 319.957,50.800 320.824 C 50.800 321.691,50.966 322.400,51.168 322.400 C 51.371 322.400,51.655 322.940,51.800 323.600 C 51.945 324.260,52.229 324.800,52.432 324.800 C 52.634 324.800,52.800 325.250,52.800 325.800 C 52.800 326.350,52.980 326.800,53.200 326.800 C 53.420 326.800,53.600 327.250,53.600 327.800 C 53.600 328.350,53.747 328.800,53.926 328.800 C 54.105 328.800,54.554 329.385,54.923 330.100 C 55.960 332.107,56.508 332.886,57.700 334.048 C 58.305 334.638,58.800 335.302,58.800 335.523 C 58.800 336.048,63.952 341.200,64.477 341.200 C 64.698 341.200,65.356 341.708,65.940 342.329 C 66.523 342.949,67.900 343.978,69.000 344.614 C 70.100 345.250,71.060 345.912,71.133 346.085 C 71.207 346.258,71.702 346.400,72.233 346.400 C 72.765 346.400,73.200 346.580,73.200 346.800 C 73.200 347.020,73.573 347.200,74.029 347.200 C 74.484 347.200,75.127 347.470,75.457 347.800 C 75.787 348.130,76.394 348.400,76.805 348.400 C 77.216 348.400,77.664 348.580,77.800 348.800 C 77.936 349.020,78.656 349.200,79.400 349.200 C 80.144 349.200,80.864 349.380,81.000 349.600 C 81.136 349.820,82.227 350.000,83.424 350.000 C 84.621 350.000,85.600 350.180,85.600 350.400 C 85.600 350.666,124.000 350.800,200.000 350.800 C 276.000 350.800,314.400 350.666,314.400 350.400 C 314.400 350.180,315.379 350.000,316.576 350.000 C 317.773 350.000,318.864 349.820,319.000 349.600 C 319.136 349.380,319.856 349.200,320.600 349.200 C 321.344 349.200,322.064 349.020,322.200 348.800 C 322.336 348.580,322.865 348.400,323.375 348.400 C 323.885 348.400,324.526 348.130,324.800 347.800 C 325.074 347.470,325.636 347.200,326.049 347.200 C 326.462 347.200,326.800 347.020,326.800 346.800 C 326.800 346.580,327.235 346.400,327.767 346.400 C 328.298 346.400,328.793 346.258,328.867 346.085 C 328.940 345.912,329.900 345.250,331.000 344.614 C 332.100 343.978,333.477 342.949,334.060 342.329 C 334.644 341.708,335.315 341.200,335.553 341.200 C 336.117 341.200,341.200 336.117,341.200 335.553 C 341.200 335.315,341.708 334.644,342.329 334.060 C 342.949 333.477,343.978 332.100,344.614 331.000 C 345.250 329.900,345.912 328.940,346.085 328.867 C 346.258 328.793,346.400 328.298,346.400 327.767 C 346.400 327.235,346.580 326.800,346.800 326.800 C 347.020 326.800,347.200 326.427,347.200 325.971 C 347.200 325.516,347.470 324.873,347.800 324.543 C 348.130 324.213,348.400 323.606,348.400 323.195 C 348.400 322.784,348.580 322.336,348.800 322.200 C 349.020 322.064,349.200 321.344,349.200 320.600 C 349.200 319.856,349.380 319.136,349.600 319.000 C 349.820 318.864,350.000 317.773,350.000 316.576 C 350.000 315.379,350.180 314.400,350.400 314.400 C 350.666 314.400,350.800 276.000,350.800 200.000 C 350.800 124.000,350.666 85.600,350.400 85.600 C 350.180 85.600,350.000 84.621,350.000 83.424 C 350.000 82.227,349.820 81.136,349.600 81.000 C 349.380 80.864,349.200 80.043,349.200 79.176 C 349.200 78.309,349.020 77.600,348.800 77.600 C 348.580 77.600,348.400 77.253,348.400 76.829 C 348.400 76.404,348.130 75.787,347.800 75.457 C 347.470 75.127,347.200 74.484,347.200 74.029 C 347.200 73.573,347.020 73.200,346.800 73.200 C 346.580 73.200,346.400 72.750,346.400 72.200 C 346.400 71.650,346.220 71.200,346.000 71.200 C 345.780 71.200,345.600 71.016,345.600 70.791 C 345.600 70.163,343.536 67.126,342.303 65.940 C 341.696 65.356,341.200 64.661,341.200 64.394 C 341.200 63.816,336.115 58.800,335.529 58.800 C 335.305 58.800,334.617 58.260,334.000 57.600 C 333.383 56.940,332.759 56.400,332.613 56.400 C 332.466 56.400,331.757 55.950,331.036 55.400 C 330.314 54.850,329.516 54.400,329.262 54.400 C 329.008 54.400,328.800 54.220,328.800 54.000 C 328.800 53.780,328.350 53.600,327.800 53.600 C 327.250 53.600,326.800 53.420,326.800 53.200 C 326.800 52.980,326.462 52.800,326.049 52.800 C 325.636 52.800,325.074 52.530,324.800 52.200 C 324.526 51.870,323.874 51.600,323.351 51.600 C 322.828 51.600,322.400 51.420,322.400 51.200 C 322.400 50.980,321.691 50.800,320.824 50.800 C 319.957 50.800,319.136 50.620,319.000 50.400 C 318.864 50.180,317.773 50.000,316.576 50.000 C 315.379 50.000,314.400 49.820,314.400 49.600 C 314.400 49.334,276.000 49.200,200.000 49.200 C 124.000 49.200,85.600 49.334,85.600 49.600 M213.400 100.013 C 223.189 101.121,228.593 102.165,234.000 103.993 C 238.519 105.520,246.234 109.031,247.200 110.001 C 247.310 110.111,247.940 110.464,248.600 110.785 C 255.201 113.995,265.129 123.081,268.285 128.800 C 270.874 133.492,272.372 136.898,273.123 139.800 C 273.350 140.680,273.733 142.148,273.973 143.063 C 275.906 150.425,275.955 163.552,274.073 169.645 C 273.843 170.390,273.444 171.810,273.188 172.800 C 272.932 173.790,272.560 174.913,272.361 175.295 C 272.162 175.677,272.000 176.171,272.000 176.394 C 272.000 180.420,258.231 196.800,254.846 196.800 C 254.601 196.800,254.400 196.967,254.400 197.171 C 254.400 197.375,254.085 197.624,253.700 197.724 C 253.159 197.866,253.200 197.918,253.876 197.954 C 254.358 197.979,254.864 198.180,255.000 198.400 C 255.136 198.620,255.534 198.800,255.884 198.800 C 256.873 198.800,263.971 202.345,266.200 203.953 C 271.759 207.962,275.956 212.840,278.975 218.800 C 279.588 220.010,280.249 221.313,280.445 221.695 C 280.640 222.077,280.800 222.664,280.800 223.000 C 280.800 223.336,280.962 223.923,281.161 224.305 C 281.553 225.060,282.012 226.720,282.978 230.882 C 283.833 234.569,283.844 248.249,282.995 252.657 C 281.787 258.928,281.511 260.214,281.204 261.000 C 281.032 261.440,280.661 262.610,280.380 263.600 C 276.802 276.211,265.296 288.098,251.300 293.643 C 250.805 293.840,249.995 294.172,249.500 294.382 C 247.461 295.248,242.485 296.800,241.750 296.800 C 241.315 296.800,240.789 296.962,240.580 297.159 C 240.371 297.356,239.480 297.619,238.600 297.743 C 237.720 297.867,235.920 298.154,234.600 298.380 C 233.280 298.607,230.692 298.974,228.849 299.196 C 227.005 299.418,224.395 299.778,223.049 299.997 C 219.255 300.612,125.499 300.539,124.880 299.920 C 124.181 299.221,124.181 100.779,124.880 100.080 C 125.466 99.494,208.262 99.431,213.400 100.013 M175.600 156.438 L 175.600 178.876 195.300 178.701 C 214.865 178.528,215.858 178.461,218.495 177.146 C 218.877 176.956,219.368 176.800,219.587 176.800 C 221.925 176.800,228.705 170.191,230.665 166.000 C 233.117 160.759,233.382 150.409,231.130 147.820 C 230.949 147.611,230.800 147.209,230.800 146.928 C 230.800 144.658,225.120 138.628,221.000 136.523 C 216.075 134.006,216.008 134.000,194.854 134.000 L 175.600 134.000 175.600 156.438 M175.600 241.790 L 175.600 266.400 196.100 266.379 C 217.607 266.358,221.903 266.112,225.200 264.716 C 227.623 263.691,228.315 263.335,230.200 262.150 C 233.612 260.005,238.800 254.125,238.800 252.403 C 238.800 252.175,238.959 251.677,239.153 251.295 C 239.912 249.804,240.356 248.543,240.595 247.200 C 242.936 234.055,236.974 223.311,224.600 218.374 C 222.613 217.581,219.654 217.463,198.300 217.326 L 175.600 217.181 175.600 241.790 " stroke="none" fill="#643cb4" fill-rule="evenodd"></path><path id="path2" d="M124.985 100.500 C 124.880 100.775,124.841 145.730,124.898 200.400 L 125.000 299.800 171.800 299.900 C 197.540 299.955,219.676 299.865,220.991 299.700 C 222.306 299.535,201.291 299.452,174.291 299.516 L 125.200 299.633 125.200 200.000 L 125.200 100.367 169.900 100.484 C 194.485 100.548,213.610 100.483,212.400 100.340 C 207.910 99.808,125.190 99.960,124.985 100.500 M215.907 101.090 C 216.626 101.179,217.706 101.177,218.307 101.086 C 218.908 100.995,218.320 100.922,217.000 100.924 C 215.680 100.926,215.188 101.001,215.907 101.090 M220.200 101.580 C 220.961 101.926,223.917 102.164,223.567 101.851 C 223.475 101.769,222.500 101.593,221.400 101.459 C 220.054 101.295,219.661 101.335,220.200 101.580 M224.800 102.400 C 225.130 102.613,225.850 102.773,226.400 102.754 L 227.400 102.720 226.400 102.400 C 224.858 101.906,224.036 101.906,224.800 102.400 M228.400 103.200 C 228.730 103.413,229.270 103.588,229.600 103.588 C 230.133 103.588,230.133 103.545,229.600 103.200 C 229.270 102.987,228.730 102.812,228.400 102.812 C 227.867 102.812,227.867 102.855,228.400 103.200 M233.800 104.685 C 234.240 104.791,234.771 105.040,234.980 105.239 C 235.189 105.437,235.729 105.593,236.180 105.584 C 236.781 105.573,236.641 105.413,235.654 104.984 C 234.914 104.663,234.014 104.421,233.654 104.446 C 233.194 104.479,233.237 104.550,233.800 104.685 M237.200 105.789 C 237.200 106.106,240.100 107.233,240.328 107.005 C 240.441 106.892,240.435 106.800,240.316 106.800 C 240.196 106.800,239.446 106.528,238.649 106.195 C 237.852 105.862,237.200 105.679,237.200 105.789 M243.941 109.005 C 244.898 109.552,245.798 109.994,245.941 109.988 C 246.355 109.968,243.043 108.004,242.600 108.007 C 242.380 108.008,242.983 108.457,243.941 109.005 M247.200 110.767 C 248.163 111.552,248.800 111.808,248.800 111.410 C 248.800 111.306,248.215 110.935,247.500 110.586 L 246.200 109.952 247.200 110.767 M249.600 112.058 C 250.494 112.974,258.281 118.231,257.703 117.529 C 257.287 117.023,255.612 115.848,249.600 111.843 C 249.067 111.488,249.067 111.512,249.600 112.058 M261.138 121.110 C 262.602 122.600,263.880 123.765,263.978 123.699 C 264.201 123.547,259.122 118.400,258.750 118.400 C 258.600 118.400,259.675 119.619,261.138 121.110 M265.200 125.600 C 265.670 126.260,266.144 126.800,266.254 126.800 C 266.364 126.800,266.070 126.260,265.600 125.600 C 265.130 124.940,264.656 124.400,264.546 124.400 C 264.436 124.400,264.730 124.940,265.200 125.600 M268.000 129.762 C 268.000 130.147,269.758 133.175,269.899 133.034 C 270.085 132.848,268.470 129.600,268.192 129.600 C 268.086 129.600,268.000 129.673,268.000 129.762 M175.246 133.345 C 174.918 133.740,174.822 140.172,174.897 156.645 L 175.000 179.400 193.451 179.504 C 203.599 179.561,212.562 179.471,213.369 179.304 C 214.176 179.137,205.963 179.000,195.118 179.000 L 175.400 179.000 175.297 156.300 L 175.193 133.600 194.497 133.550 C 205.567 133.521,213.032 133.363,212.000 133.180 C 208.620 132.578,175.759 132.726,175.246 133.345 M215.800 134.000 C 216.996 134.514,217.995 134.514,217.200 134.000 C 216.870 133.787,216.240 133.622,215.800 133.634 L 215.000 133.656 215.800 134.000 M226.601 139.998 C 227.260 140.767,227.845 141.472,227.900 141.565 C 227.955 141.657,228.087 141.646,228.194 141.539 C 228.301 141.433,227.716 140.728,226.895 139.973 L 225.402 138.600 226.601 139.998 M272.434 140.200 C 272.422 140.640,272.587 141.270,272.800 141.600 C 273.314 142.395,273.314 141.396,272.800 140.200 L 272.456 139.400 272.434 140.200 M229.696 143.968 C 230.412 145.050,231.061 145.873,231.138 145.796 C 231.300 145.633,228.850 142.000,228.578 142.000 C 228.477 142.000,228.980 142.885,229.696 143.968 M273.435 144.000 C 273.966 148.092,274.289 149.540,274.330 148.000 C 274.350 147.230,274.104 145.610,273.784 144.400 C 273.225 142.288,273.211 142.272,273.435 144.000 M274.568 156.800 C 274.570 163.254,274.596 163.513,274.908 160.123 C 275.095 158.101,275.094 154.951,274.907 153.123 C 274.607 150.191,274.567 150.623,274.568 156.800 M232.863 151.400 C 232.854 151.840,232.995 152.920,233.177 153.800 L 233.508 155.400 233.514 154.000 C 233.517 153.230,233.376 152.150,233.200 151.600 C 232.941 150.791,232.877 150.753,232.863 151.400 M233.046 159.147 C 232.889 160.327,232.846 161.379,232.950 161.483 C 233.217 161.750,233.722 158.164,233.507 157.525 C 233.411 157.236,233.203 157.966,233.046 159.147 M273.888 166.000 C 273.228 170.015,273.201 171.037,273.821 168.600 C 274.156 167.280,274.375 165.750,274.307 165.200 C 274.220 164.494,274.097 164.730,273.888 166.000 M230.068 167.965 C 228.111 171.446,224.218 174.968,220.018 177.054 C 219.018 177.551,218.419 177.967,218.686 177.979 C 219.932 178.033,225.310 174.394,227.521 172.000 C 228.732 170.690,231.313 166.780,231.105 166.571 C 231.015 166.482,230.549 167.109,230.068 167.965 M272.649 171.815 C 272.512 172.173,272.415 172.766,272.434 173.133 C 272.453 173.500,272.627 173.269,272.821 172.620 C 273.198 171.358,273.065 170.733,272.649 171.815 M216.200 178.400 L 215.400 178.744 216.200 178.766 C 216.640 178.778,217.270 178.613,217.600 178.400 C 218.395 177.886,217.396 177.886,216.200 178.400 M269.179 180.701 C 268.874 181.305,268.089 182.610,267.434 183.600 C 266.780 184.590,266.548 185.154,266.919 184.853 C 267.706 184.216,270.169 180.036,269.910 179.777 C 269.814 179.680,269.485 180.096,269.179 180.701 M264.426 187.700 C 263.450 188.855,263.153 189.350,263.765 188.800 C 264.796 187.873,266.617 185.600,266.327 185.600 C 266.257 185.600,265.402 186.545,264.426 187.700 M261.398 190.802 C 260.358 191.951,260.820 192.080,261.914 190.946 C 262.417 190.426,262.670 190.000,262.476 190.000 C 262.282 190.000,261.797 190.361,261.398 190.802 M258.330 193.532 C 255.748 195.559,255.450 195.966,257.623 194.499 C 259.156 193.463,260.861 191.921,260.349 192.032 C 260.267 192.050,259.359 192.725,258.330 193.532 M252.211 197.583 C 251.959 197.990,254.005 199.214,254.880 199.179 C 255.166 199.168,254.710 198.873,253.867 198.523 C 252.764 198.067,252.484 197.793,252.867 197.550 C 253.231 197.319,253.249 197.210,252.924 197.206 C 252.662 197.203,252.341 197.372,252.211 197.583 M260.177 201.408 C 261.704 202.163,263.037 202.696,263.140 202.594 C 263.335 202.399,258.247 199.986,257.709 200.018 C 257.539 200.029,258.650 200.654,260.177 201.408 M266.000 204.546 C 266.000 204.656,266.540 205.130,267.200 205.600 C 267.860 206.070,268.400 206.364,268.400 206.254 C 268.400 206.144,267.860 205.670,267.200 205.200 C 266.540 204.730,266.000 204.436,266.000 204.546 M270.604 208.379 C 272.590 210.667,272.831 210.902,273.011 210.723 C 273.106 210.628,272.334 209.751,271.295 208.775 C 269.922 207.483,269.733 207.375,270.604 208.379 M274.216 212.691 C 274.867 213.622,275.547 214.387,275.727 214.391 C 276.141 214.402,274.671 212.316,273.735 211.564 C 273.348 211.254,273.565 211.761,274.216 212.691 M276.000 215.021 C 276.000 215.143,276.450 215.905,277.000 216.714 C 278.216 218.503,278.319 218.187,277.160 216.223 C 276.374 214.890,276.000 214.503,276.000 215.021 M175.067 216.667 C 174.548 217.185,174.757 266.197,175.280 266.720 C 175.805 267.245,215.150 267.375,219.000 266.865 C 220.100 266.719,210.740 266.600,198.200 266.600 L 175.400 266.600 175.297 241.703 L 175.194 216.807 197.697 216.700 L 220.200 216.593 197.767 216.497 C 185.428 216.443,175.213 216.520,175.067 216.667 M221.800 217.200 C 222.901 217.673,223.292 217.673,223.000 217.200 C 222.864 216.980,222.358 216.813,221.876 216.828 C 221.031 216.855,221.029 216.869,221.800 217.200 M278.460 219.601 C 278.690 220.261,279.041 220.902,279.239 221.024 C 279.739 221.333,279.696 221.115,278.971 219.661 C 278.175 218.066,277.914 218.035,278.460 219.601 M230.200 220.742 C 231.520 221.586,233.565 223.304,234.744 224.561 C 235.923 225.817,236.956 226.777,237.040 226.693 C 237.581 226.152,229.271 219.189,228.101 219.204 C 227.936 219.206,228.880 219.898,230.200 220.742 M280.428 224.276 C 280.413 224.758,280.580 225.264,280.800 225.400 C 281.273 225.692,281.273 225.301,280.800 224.200 C 280.469 223.429,280.455 223.431,280.428 224.276 M281.246 226.800 C 281.227 227.350,281.387 228.070,281.600 228.400 C 282.094 229.164,282.094 228.342,281.600 226.800 L 281.280 225.800 281.246 226.800 M238.046 228.796 C 238.539 229.673,239.008 230.326,239.087 230.246 C 239.259 230.074,237.606 227.200,237.335 227.200 C 237.233 227.200,237.552 227.918,238.046 228.796 M282.279 231.400 C 282.863 237.124,283.152 238.877,282.972 235.600 C 282.882 233.950,282.633 231.790,282.421 230.800 C 282.062 229.130,282.052 229.174,282.279 231.400 M240.834 235.600 C 240.846 235.930,241.011 236.560,241.200 237.000 L 241.544 237.800 241.566 237.000 C 241.578 236.560,241.413 235.930,241.200 235.600 C 240.855 235.067,240.815 235.067,240.834 235.600 M241.744 241.600 C 241.744 243.690,241.812 244.545,241.894 243.500 C 241.976 242.455,241.976 240.745,241.894 239.700 C 241.812 238.655,241.744 239.510,241.744 241.600 M282.652 247.700 C 282.508 249.295,282.312 251.590,282.218 252.800 L 282.047 255.000 282.411 253.000 C 282.890 250.363,283.368 244.800,283.115 244.800 C 283.005 244.800,282.797 246.105,282.652 247.700 M241.029 247.029 C 240.881 247.615,240.851 248.184,240.961 248.294 C 241.071 248.404,241.281 248.015,241.429 247.429 C 241.576 246.842,241.606 246.273,241.496 246.163 C 241.386 246.053,241.176 246.442,241.029 247.029 M238.800 253.238 C 238.800 253.479,238.425 254.244,237.967 254.938 L 237.134 256.200 238.165 255.000 C 239.095 253.917,239.519 252.800,239.000 252.800 C 238.890 252.800,238.800 252.997,238.800 253.238 M281.476 256.010 C 281.330 256.555,281.227 257.450,281.246 258.000 C 281.271 258.718,281.384 258.557,281.649 257.427 C 282.055 255.695,281.900 254.425,281.476 256.010 M234.062 259.640 C 233.326 260.309,232.798 260.931,232.889 261.022 C 232.980 261.114,233.663 260.561,234.406 259.794 C 236.066 258.081,235.872 257.994,234.062 259.640 M231.780 261.573 C 231.571 261.779,230.331 262.589,229.024 263.373 C 227.716 264.158,226.858 264.800,227.116 264.800 C 227.677 264.800,231.841 262.182,232.197 261.605 C 232.511 261.097,232.282 261.080,231.780 261.573 M278.390 266.686 C 277.887 267.959,277.323 269.171,277.138 269.380 C 276.952 269.589,276.800 269.944,276.800 270.169 C 276.800 270.394,277.037 270.223,277.326 269.789 C 278.019 268.750,279.650 264.717,279.456 264.523 C 279.373 264.439,278.893 265.413,278.390 266.686 M274.428 274.220 C 273.753 275.221,273.200 276.145,273.200 276.274 C 273.200 276.552,274.355 275.046,275.327 273.500 C 276.468 271.686,275.751 272.260,274.428 274.220 M271.400 278.467 C 270.740 279.347,269.165 281.054,267.900 282.261 C 266.635 283.469,265.600 284.573,265.600 284.716 C 265.600 285.085,270.228 280.492,271.679 278.682 C 272.349 277.846,272.830 277.097,272.748 277.016 C 272.667 276.935,272.060 277.588,271.400 278.467 M263.447 285.998 C 261.545 287.437,261.144 287.847,262.200 287.274 C 263.117 286.776,265.501 284.830,265.200 284.826 C 265.090 284.824,264.301 285.351,263.447 285.998 M260.000 288.420 L 259.000 289.222 260.100 288.747 C 260.705 288.485,261.200 288.120,261.200 287.936 C 261.200 287.479,261.145 287.502,260.000 288.420 M256.073 290.484 C 254.903 291.142,254.027 291.760,254.125 291.859 C 254.308 292.042,257.893 290.184,258.580 289.551 C 259.315 288.873,258.205 289.286,256.073 290.484 M246.704 294.515 C 245.441 294.969,244.482 295.416,244.574 295.507 C 244.729 295.663,249.602 294.074,249.967 293.749 C 250.368 293.391,248.821 293.755,246.704 294.515 M242.000 296.000 C 241.467 296.345,241.467 296.388,242.000 296.388 C 242.330 296.388,242.870 296.213,243.200 296.000 C 243.733 295.655,243.733 295.612,243.200 295.612 C 242.870 295.612,242.330 295.787,242.000 296.000 M239.000 296.800 C 238.708 297.273,239.099 297.273,240.200 296.800 C 240.971 296.469,240.969 296.455,240.124 296.428 C 239.642 296.413,239.136 296.580,239.000 296.800 M235.000 297.610 C 234.466 297.847,234.798 297.886,236.000 297.727 C 236.990 297.596,237.875 297.424,237.967 297.344 C 238.314 297.043,235.764 297.272,235.000 297.610 M230.295 298.239 C 230.164 298.370,228.739 298.629,227.128 298.814 L 224.200 299.150 227.200 298.979 C 228.850 298.885,231.010 298.648,232.000 298.454 L 233.800 298.100 232.167 298.050 C 231.268 298.023,230.426 298.107,230.295 298.239 " stroke="none" fill="#bca6de" fill-rule="evenodd"></path><path id="path3" d="M225.200 138.925 C 225.200 138.994,225.785 139.579,226.500 140.225 L 227.800 141.400 226.625 140.100 C 225.530 138.888,225.200 138.616,225.200 138.925 M274.893 160.400 C 274.893 161.170,274.975 161.485,275.076 161.100 C 275.176 160.715,275.176 160.085,275.076 159.700 C 274.975 159.315,274.893 159.630,274.893 160.400 M283.293 241.200 C 283.293 241.970,283.375 242.285,283.476 241.900 C 283.576 241.515,283.576 240.885,283.476 240.500 C 283.375 240.115,283.293 240.430,283.293 241.200 M234.175 259.300 L 233.000 260.600 234.300 259.425 C 235.015 258.779,235.600 258.194,235.600 258.125 C 235.600 257.816,235.270 258.088,234.175 259.300 M185.700 266.700 C 191.365 266.762,200.635 266.762,206.300 266.700 C 211.965 266.637,207.330 266.586,196.000 266.586 C 184.670 266.586,180.035 266.637,185.700 266.700 " stroke="none" fill="#ac92d6" fill-rule="evenodd"></path><path id="path4" d="M124.880 100.080 C 124.181 100.779,124.181 299.221,124.880 299.920 C 125.631 300.671,219.799 300.547,224.200 299.789 L 227.400 299.239 224.600 299.519 C 223.060 299.674,200.020 299.800,173.400 299.800 L 125.000 299.800 125.000 200.000 L 125.000 100.200 168.200 99.997 L 211.400 99.795 168.380 99.697 C 135.344 99.623,125.249 99.711,124.880 100.080 M212.833 100.150 C 212.925 100.232,214.080 100.404,215.400 100.531 C 216.955 100.680,217.448 100.642,216.800 100.421 C 215.814 100.084,212.510 99.859,212.833 100.150 M220.800 101.200 C 221.350 101.376,222.160 101.526,222.600 101.532 L 223.400 101.544 222.600 101.200 C 222.160 101.011,221.350 100.862,220.800 100.868 L 219.800 100.880 220.800 101.200 M225.200 102.000 C 226.742 102.494,227.564 102.494,226.800 102.000 C 226.470 101.787,225.750 101.627,225.200 101.646 L 224.200 101.680 225.200 102.000 M228.033 102.544 C 228.125 102.623,228.740 102.808,229.400 102.956 C 230.276 103.152,230.438 103.115,230.000 102.818 C 229.460 102.453,227.632 102.198,228.033 102.544 M232.200 103.812 C 234.273 104.558,234.994 104.540,233.254 103.784 C 232.514 103.463,231.614 103.208,231.254 103.218 C 230.894 103.227,231.320 103.495,232.200 103.812 M242.569 107.818 C 243.652 108.355,244.604 108.729,244.685 108.649 C 244.854 108.479,241.359 106.790,240.904 106.821 C 240.737 106.833,241.486 107.281,242.569 107.818 M249.233 111.335 C 250.093 112.033,253.200 113.993,253.200 113.838 C 253.200 113.576,249.743 111.200,249.361 111.200 C 249.199 111.200,249.142 111.261,249.233 111.335 M254.800 114.946 C 254.800 115.056,255.340 115.530,256.000 116.000 C 256.660 116.470,257.200 116.764,257.200 116.654 C 257.200 116.544,256.660 116.070,256.000 115.600 C 255.340 115.130,254.800 114.836,254.800 114.946 M257.600 117.144 C 257.600 117.358,257.788 117.596,258.017 117.672 C 258.246 117.749,259.894 119.249,261.679 121.006 C 263.865 123.157,264.423 123.583,263.387 122.311 C 261.636 120.160,257.600 116.556,257.600 117.144 M267.237 127.600 C 268.396 129.396,268.400 129.401,268.398 128.967 C 268.397 128.765,267.932 128.060,267.365 127.400 L 266.334 126.200 267.237 127.600 M270.000 132.478 C 270.000 132.605,270.269 133.224,270.598 133.854 C 270.926 134.484,271.190 134.730,271.185 134.400 C 271.179 134.070,270.910 133.451,270.587 133.024 C 270.264 132.596,270.000 132.351,270.000 132.478 M175.297 156.300 L 175.400 179.000 193.000 179.006 L 210.600 179.013 193.100 178.902 L 175.600 178.792 175.600 156.385 L 175.600 133.978 195.500 134.117 C 206.445 134.192,215.940 134.380,216.600 134.534 C 217.260 134.687,216.990 134.543,216.000 134.212 C 214.499 133.712,210.960 133.611,194.697 133.606 L 175.193 133.600 175.297 156.300 M220.000 135.779 C 220.000 135.889,220.540 136.259,221.200 136.600 C 221.860 136.941,222.400 137.131,222.400 137.021 C 222.400 136.911,221.860 136.541,221.200 136.200 C 220.540 135.859,220.000 135.669,220.000 135.779 M222.800 137.346 C 222.800 137.456,223.340 137.930,224.000 138.400 C 224.660 138.870,225.200 139.164,225.200 139.054 C 225.200 138.944,224.660 138.470,224.000 138.000 C 223.340 137.530,222.800 137.236,222.800 137.346 M228.062 142.246 C 228.578 142.932,229.214 143.832,229.476 144.246 C 229.739 144.661,229.964 144.805,229.976 144.567 C 229.989 144.328,229.353 143.428,228.562 142.567 C 227.619 141.539,227.447 141.429,228.062 142.246 M273.656 143.200 C 273.656 143.530,273.811 144.160,274.000 144.600 C 274.217 145.104,274.344 145.178,274.344 144.800 C 274.344 144.470,274.189 143.840,274.000 143.400 C 273.783 142.896,273.656 142.822,273.656 143.200 M274.501 147.400 C 274.505 148.280,274.587 148.593,274.683 148.095 C 274.779 147.598,274.775 146.878,274.675 146.495 C 274.575 146.113,274.496 146.520,274.501 147.400 M230.816 146.705 C 230.807 146.983,230.961 147.523,231.159 147.905 C 231.356 148.287,231.711 149.050,231.948 149.600 C 232.359 150.555,232.368 150.546,232.134 149.400 C 231.853 148.020,230.840 145.950,230.816 146.705 M274.901 150.600 C 274.905 151.480,274.987 151.793,275.083 151.295 C 275.179 150.798,275.175 150.078,275.075 149.695 C 274.975 149.313,274.896 149.720,274.901 150.600 M232.493 152.000 C 232.493 152.770,232.575 153.085,232.676 152.700 C 232.776 152.315,232.776 151.685,232.676 151.300 C 232.575 150.915,232.493 151.230,232.493 152.000 M275.351 156.800 C 275.351 159.330,275.416 160.365,275.496 159.100 C 275.575 157.835,275.575 155.765,275.496 154.500 C 275.416 153.235,275.351 154.270,275.351 156.800 M232.776 156.100 C 232.763 157.475,232.593 159.410,232.398 160.400 C 232.203 161.390,231.936 162.740,231.805 163.400 C 231.624 164.315,231.715 164.220,232.190 163.000 C 232.820 161.380,233.540 153.600,233.060 153.600 C 232.917 153.600,232.789 154.725,232.776 156.100 M274.600 164.400 C 274.443 165.966,274.400 167.333,274.504 167.437 C 274.608 167.542,274.820 166.344,274.975 164.775 C 275.130 163.206,275.173 161.839,275.071 161.738 C 274.969 161.636,274.757 162.834,274.600 164.400 M228.784 169.223 C 228.305 169.896,227.979 170.513,228.061 170.594 C 228.143 170.676,228.614 170.126,229.108 169.371 C 230.223 167.671,229.971 167.556,228.784 169.223 M225.800 172.525 C 224.920 173.401,223.345 174.647,222.300 175.293 C 220.038 176.693,219.754 177.214,221.916 175.999 C 223.657 175.021,227.899 171.369,227.600 171.107 C 227.490 171.011,226.680 171.649,225.800 172.525 M271.632 176.319 C 271.614 176.605,271.241 177.581,270.803 178.489 C 270.364 179.396,270.071 180.205,270.151 180.285 C 270.423 180.557,272.042 176.726,271.852 176.261 C 271.725 175.951,271.653 175.970,271.632 176.319 M216.000 178.018 C 215.562 178.315,215.724 178.352,216.600 178.156 C 218.071 177.827,218.390 177.598,217.367 177.606 C 216.945 177.609,216.330 177.795,216.000 178.018 M211.907 178.690 C 212.626 178.779,213.706 178.777,214.307 178.686 C 214.908 178.595,214.320 178.522,213.000 178.524 C 211.680 178.526,211.188 178.601,211.907 178.690 M268.087 183.404 C 267.176 184.832,266.508 186.000,266.601 186.000 C 266.890 186.000,270.081 181.148,269.907 180.973 C 269.816 180.883,268.997 181.976,268.087 183.404 M261.775 191.300 L 260.600 192.600 261.900 191.425 C 262.615 190.779,263.200 190.194,263.200 190.125 C 263.200 189.816,262.870 190.088,261.775 191.300 M258.770 193.888 C 258.058 194.686,258.013 194.819,258.598 194.388 C 259.872 193.450,260.486 192.800,260.098 192.800 C 259.901 192.800,259.303 193.290,258.770 193.888 M256.011 195.820 C 255.247 196.359,254.797 196.799,255.011 196.798 C 255.225 196.797,255.940 196.353,256.600 195.812 C 258.141 194.549,257.805 194.553,256.011 195.820 M252.800 197.946 C 253.774 198.526,255.458 198.947,255.000 198.497 C 254.780 198.280,254.060 197.988,253.400 197.846 C 252.617 197.678,252.408 197.713,252.800 197.946 M256.000 199.094 C 256.330 199.220,257.365 199.650,258.300 200.048 C 259.235 200.446,260.000 200.682,260.000 200.572 C 260.000 200.293,256.437 198.793,255.867 198.832 C 255.610 198.849,255.670 198.967,256.000 199.094 M260.800 200.979 C 260.800 201.089,261.340 201.459,262.000 201.800 C 262.660 202.141,263.200 202.331,263.200 202.221 C 263.200 202.111,262.660 201.741,262.000 201.400 C 261.340 201.059,260.800 200.869,260.800 200.979 M263.633 202.530 C 263.725 202.601,264.430 203.066,265.200 203.563 L 266.600 204.466 265.400 203.435 C 264.740 202.868,264.035 202.403,263.833 202.402 C 263.632 202.401,263.542 202.458,263.633 202.530 M271.600 209.002 C 273.250 210.763,275.012 212.743,275.515 213.402 L 276.430 214.600 275.500 213.133 C 274.523 211.590,271.713 208.492,269.756 206.800 C 269.120 206.250,269.950 207.241,271.600 209.002 M277.800 217.200 C 278.141 217.860,278.511 218.400,278.621 218.400 C 278.731 218.400,278.541 217.860,278.200 217.200 C 277.859 216.540,277.489 216.000,277.379 216.000 C 277.269 216.000,277.459 216.540,277.800 217.200 M175.384 217.300 C 175.279 217.575,175.241 228.780,175.299 242.200 L 175.406 266.600 175.503 241.903 L 175.600 217.207 197.900 217.100 L 220.200 216.993 197.887 216.897 C 180.334 216.821,175.534 216.907,175.384 217.300 M221.000 217.600 C 221.440 217.789,222.250 217.938,222.800 217.932 L 223.800 217.920 222.800 217.600 C 222.250 217.424,221.440 217.274,221.000 217.268 L 220.200 217.256 221.000 217.600 M278.814 219.024 C 278.839 219.694,279.972 221.430,279.973 220.800 C 279.974 220.470,279.710 219.851,279.387 219.424 C 279.064 218.996,278.806 218.816,278.814 219.024 M228.000 219.715 C 228.000 219.806,228.933 220.460,230.073 221.169 C 231.213 221.878,231.943 222.213,231.696 221.915 C 231.224 221.347,228.000 219.427,228.000 219.715 M232.400 222.470 C 232.400 222.799,235.683 226.050,235.848 225.885 C 235.923 225.811,235.177 224.959,234.192 223.992 C 233.206 223.025,232.400 222.340,232.400 222.470 M237.279 228.404 C 237.964 229.507,238.604 230.329,238.701 230.232 C 238.881 230.052,236.495 226.400,236.197 226.400 C 236.107 226.400,236.594 227.302,237.279 228.404 M282.660 230.800 C 282.802 231.570,283.041 234.000,283.192 236.200 L 283.466 240.200 283.525 236.800 C 283.560 234.793,283.342 232.581,282.993 231.400 C 282.668 230.300,282.518 230.030,282.660 230.800 M240.694 236.400 C 241.058 238.642,241.050 244.863,240.680 247.000 C 240.445 248.355,240.493 248.294,240.994 246.600 C 241.742 244.068,241.737 239.647,240.984 236.800 C 240.472 234.866,240.436 234.818,240.694 236.400 M283.114 247.000 C 282.957 249.640,282.737 252.430,282.625 253.200 C 282.512 253.970,282.691 253.430,283.021 252.000 C 283.385 250.426,283.578 247.980,283.511 245.800 L 283.400 242.200 283.114 247.000 M281.850 256.850 C 281.709 257.553,281.669 258.202,281.759 258.292 C 281.850 258.383,282.048 257.891,282.200 257.200 C 282.352 256.509,282.393 255.859,282.291 255.758 C 282.189 255.656,281.991 256.147,281.850 256.850 M235.234 257.753 L 234.269 259.000 235.413 257.912 C 236.043 257.314,236.477 256.753,236.379 256.665 C 236.280 256.577,235.765 257.067,235.234 257.753 M281.246 259.467 C 281.221 259.724,281.084 260.264,280.941 260.667 C 280.740 261.236,280.794 261.297,281.179 260.942 C 281.452 260.691,281.589 260.151,281.484 259.742 C 281.379 259.334,281.272 259.210,281.246 259.467 M231.958 260.913 C 231.384 261.401,230.574 262.014,230.158 262.276 C 229.741 262.539,229.595 262.764,229.833 262.776 C 230.072 262.789,230.972 262.177,231.833 261.417 C 233.542 259.908,233.649 259.473,231.958 260.913 M279.515 265.010 C 279.392 265.445,279.169 266.160,279.020 266.600 C 278.871 267.040,279.042 266.894,279.400 266.276 C 279.758 265.658,279.981 264.942,279.895 264.686 C 279.810 264.430,279.639 264.576,279.515 265.010 M222.236 265.498 C 222.072 265.662,220.917 265.905,219.669 266.039 C 217.474 266.274,217.458 266.284,219.200 266.335 C 220.190 266.364,221.810 266.133,222.800 265.821 C 224.170 265.389,224.353 265.247,223.567 265.227 C 222.998 265.212,222.399 265.334,222.236 265.498 M277.999 268.602 C 277.766 269.214,277.481 269.869,277.364 270.058 C 277.248 270.246,277.249 270.400,277.366 270.400 C 277.715 270.400,278.878 267.944,278.641 267.707 C 278.521 267.587,278.232 267.990,277.999 268.602 M274.879 274.396 C 274.194 275.498,273.707 276.400,273.797 276.400 C 274.095 276.400,276.481 272.748,276.301 272.568 C 276.204 272.471,275.564 273.293,274.879 274.396 M271.639 278.800 C 270.711 279.900,270.065 280.800,270.202 280.800 C 270.452 280.800,272.141 278.911,273.123 277.534 C 274.132 276.117,273.308 276.820,271.639 278.800 M267.942 282.676 C 267.710 283.209,263.565 286.572,261.205 288.141 C 259.998 288.943,259.165 289.600,259.353 289.600 C 260.398 289.600,268.778 283.044,268.319 282.586 C 268.189 282.456,268.020 282.497,267.942 282.676 M255.400 291.431 C 254.520 291.957,253.942 292.390,254.116 292.393 C 254.554 292.403,257.600 290.828,257.600 290.592 C 257.600 290.243,257.018 290.464,255.400 291.431 M242.800 296.225 C 242.030 296.516,241.670 296.762,242.000 296.771 C 242.330 296.781,243.320 296.529,244.200 296.212 C 245.080 295.895,245.440 295.649,245.000 295.665 C 244.560 295.682,243.570 295.934,242.800 296.225 M239.400 297.200 C 238.629 297.531,238.631 297.545,239.476 297.572 C 239.958 297.587,240.464 297.420,240.600 297.200 C 240.892 296.727,240.501 296.727,239.400 297.200 M235.200 298.000 L 234.200 298.320 235.200 298.354 C 235.750 298.373,236.470 298.213,236.800 298.000 C 237.564 297.506,236.742 297.506,235.200 298.000 M230.600 298.800 L 229.800 299.144 230.600 299.144 C 231.040 299.144,231.760 298.989,232.200 298.800 L 233.000 298.456 232.200 298.456 C 231.760 298.456,231.040 298.611,230.600 298.800 " stroke="none" fill="#9d80d0" fill-rule="evenodd"></path></g></svg>