<svg id="svg" version="1.1" xmlns="http://www.w3.org/2000/svg" xmlns:xlink="http://www.w3.org/1999/xlink" width="400" height="400" viewBox="0, 0, 400,400"><g id="svgg"><path id="path0" d="M37.712 27.306 C 32.794 30.042,31.408 31.112,30.077 33.200 C 29.305 34.410,28.339 35.891,27.931 36.492 C 26.395 38.750,26.372 41.436,26.500 203.000 C 26.626 360.988,26.636 362.131,27.965 363.663 C 28.221 363.958,29.009 365.190,29.715 366.400 C 32.121 370.521,36.327 372.783,43.045 373.572 C 50.657 374.466,185.897 374.140,186.386 373.226 C 186.659 372.716,186.797 364.025,186.790 347.726 L 186.780 323.000 195.890 314.095 C 200.900 309.198,205.117 305.058,205.260 304.895 C 205.403 304.733,206.213 303.908,207.060 303.063 C 207.907 302.218,209.140 300.963,209.800 300.275 C 210.460 299.586,211.578 298.478,212.284 297.812 C 212.990 297.145,215.090 295.070,216.950 293.200 C 218.810 291.330,220.794 289.350,221.358 288.800 C 221.923 288.250,226.441 283.840,231.397 279.000 C 236.354 274.160,240.722 269.903,241.105 269.541 C 241.487 269.178,244.302 266.388,247.361 263.341 C 250.419 260.293,255.564 255.180,258.794 251.977 C 262.024 248.774,264.770 245.759,264.896 245.277 L 265.125 244.400 226.936 244.400 C 190.164 244.400,187.947 244.340,186.800 243.313 C 186.690 243.214,186.510 226.183,186.400 205.467 L 186.200 167.800 135.800 167.600 L 85.400 167.400 85.276 166.124 C 85.178 165.109,85.412 164.618,86.422 163.724 C 87.371 162.883,117.766 132.512,119.495 130.677 C 119.663 130.499,122.140 127.996,125.000 125.115 C 127.860 122.234,132.810 117.238,136.000 114.012 C 139.190 110.786,150.620 99.241,161.400 88.355 C 172.180 77.469,182.215 67.291,183.700 65.738 L 186.400 62.913 186.400 45.489 C 186.400 35.906,186.291 27.781,186.157 27.433 C 185.832 26.585,39.232 26.460,37.712 27.306 M384.635 374.603 C 384.497 375.151,384.130 375.600,383.819 375.600 C 383.508 375.600,383.144 375.945,383.011 376.366 C 382.669 377.444,377.794 382.285,376.704 382.629 C 376.207 382.786,375.565 383.249,375.277 383.657 C 374.990 384.066,374.578 384.400,374.361 384.400 C 374.145 384.400,373.420 384.805,372.750 385.300 L 371.533 386.200 202.166 386.302 C 104.734 386.360,32.800 386.554,32.800 386.756 C 32.800 386.950,33.568 387.224,34.506 387.365 C 35.445 387.506,36.750 387.975,37.406 388.408 C 38.589 389.187,40.196 389.195,205.321 389.197 L 372.042 389.200 373.721 388.332 C 374.644 387.854,375.670 387.312,376.000 387.127 C 376.330 386.941,377.320 386.457,378.200 386.051 C 380.132 385.158,382.400 382.925,382.400 381.915 C 382.400 381.512,383.120 380.401,384.000 379.446 C 385.381 377.948,385.600 377.460,385.600 375.879 C 385.600 373.834,385.020 373.067,384.635 374.603 " stroke="none" fill="#5c5c5c" fill-rule="evenodd"></path><path id="path1" d="M0.000 200.000 L 0.000 400.000 200.000 400.000 L 400.000 400.000 400.000 200.000 L 400.000 0.000 200.000 0.000 L 0.000 0.000 0.000 200.000 M361.084 25.545 C 361.478 25.955,362.532 26.383,363.428 26.497 C 366.392 26.875,372.371 32.495,373.600 36.060 C 373.930 37.017,374.470 38.250,374.800 38.800 C 375.331 39.684,375.400 58.292,375.400 199.832 L 375.400 359.865 374.535 361.832 C 374.060 362.915,373.459 364.371,373.200 365.069 C 372.322 367.433,365.762 373.569,364.087 373.593 C 363.804 373.597,362.685 374.050,361.600 374.600 L 359.627 375.600 282.313 375.587 C 218.661 375.577,204.876 375.481,204.300 375.043 C 203.406 374.365,203.229 333.275,204.114 331.777 C 204.905 330.439,205.090 330.247,226.214 308.945 C 237.370 297.694,246.642 288.255,246.820 287.968 C 247.095 287.522,268.206 266.088,296.032 238.000 C 304.538 229.414,305.167 228.625,304.002 228.001 C 303.513 227.739,286.110 227.600,253.855 227.600 L 204.458 227.600 203.629 226.546 C 202.804 225.498,202.800 225.305,202.800 189.595 C 202.800 160.150,202.704 153.618,202.266 153.255 C 201.886 152.939,190.575 152.781,162.899 152.706 C 122.767 152.596,123.243 152.614,123.980 151.236 C 124.511 150.244,198.798 75.951,200.751 74.459 C 203.632 72.259,203.600 72.554,203.600 47.847 C 203.600 31.202,203.718 25.642,204.080 25.280 C 205.011 24.349,360.187 24.611,361.084 25.545 M187.184 26.075 C 187.980 26.930,188.000 27.388,188.000 45.122 L 188.000 63.294 184.900 66.428 C 146.511 105.240,124.788 127.168,107.900 144.158 C 96.188 155.940,87.200 165.290,87.200 165.691 C 87.200 166.366,89.593 166.400,136.800 166.400 C 185.867 166.400,186.409 166.409,187.200 167.200 C 187.988 167.988,188.000 168.533,188.000 204.711 C 188.000 237.290,188.070 241.522,188.623 242.311 L 189.245 243.200 227.761 243.200 C 265.826 243.200,266.285 243.209,267.003 244.004 C 267.819 244.905,254.708 258.148,195.200 316.525 L 188.600 323.000 188.390 348.600 C 188.274 362.680,188.139 374.240,188.090 374.290 C 186.765 375.612,187.449 375.600,115.720 375.598 C 40.798 375.597,42.044 375.628,36.704 373.612 C 33.422 372.373,28.400 368.335,28.400 366.935 C 28.400 366.743,27.987 365.959,27.483 365.193 C 24.993 361.413,25.189 375.509,25.189 199.926 C 25.189 43.153,25.202 40.520,25.966 38.298 C 27.564 33.656,30.395 29.852,33.400 28.312 C 34.280 27.861,35.090 27.361,35.200 27.201 C 36.532 25.257,34.681 25.304,113.284 25.250 L 186.369 25.200 187.184 26.075 M389.276 34.600 L 391.392 38.600 391.514 205.200 C 391.649 388.891,391.836 376.065,388.949 381.754 C 387.242 385.117,383.128 390.000,382.001 390.000 C 381.777 390.000,381.041 390.528,380.366 391.172 C 379.679 391.829,378.141 392.639,376.870 393.013 C 375.621 393.381,374.150 393.845,373.600 394.045 C 371.914 394.656,37.795 394.277,35.600 393.661 C 34.610 393.384,33.050 393.017,32.133 392.847 C 28.902 392.246,19.550 382.847,20.188 380.839 C 20.404 380.158,20.723 380.245,23.912 381.846 C 25.830 382.810,27.760 383.605,28.200 383.613 C 28.640 383.622,29.450 383.886,30.000 384.200 C 30.862 384.693,54.249 384.774,199.966 384.786 L 368.932 384.800 371.771 383.452 C 377.546 380.711,380.524 377.925,382.731 373.200 C 383.502 371.550,384.418 369.866,384.766 369.458 C 385.342 368.784,385.419 353.202,385.607 200.258 C 385.722 106.823,385.968 31.387,386.161 30.874 C 386.610 29.671,386.768 29.859,389.276 34.600 " stroke="none" fill="#f4f4f4" fill-rule="evenodd"></path><path id="path2" d="M205.045 27.428 C 204.910 27.778,204.800 37.879,204.800 49.872 C 204.800 73.753,204.800 73.752,202.446 74.981 C 201.106 75.681,126.376 150.242,126.694 150.561 C 126.826 150.693,143.169 150.800,163.012 150.800 C 199.225 150.800,202.692 150.920,203.993 152.221 C 204.524 152.752,204.625 157.408,204.800 189.314 L 205.000 225.800 255.170 225.895 C 282.764 225.948,305.690 226.102,306.117 226.237 C 307.680 226.733,306.779 229.464,304.328 231.662 C 303.157 232.711,301.956 233.827,301.658 234.143 C 301.359 234.458,300.575 235.255,299.915 235.915 C 298.261 237.569,298.426 237.401,291.124 244.908 C 287.536 248.597,276.275 259.990,266.100 270.226 C 255.925 280.462,247.600 288.931,247.600 289.046 C 247.600 289.160,244.360 292.479,240.400 296.422 C 236.440 300.364,233.200 303.710,233.200 303.858 C 233.200 304.005,231.895 305.356,230.300 306.859 C 228.705 308.362,227.177 309.818,226.905 310.096 C 226.633 310.373,221.593 315.460,215.705 321.400 L 205.000 332.200 204.884 352.000 C 204.820 362.890,204.870 372.211,204.994 372.712 L 205.221 373.625 283.311 373.512 L 361.400 373.400 363.372 372.400 C 365.873 371.132,371.112 365.880,372.409 363.340 L 373.400 361.400 373.400 200.000 C 373.400 48.905,373.357 38.523,372.721 37.400 C 372.347 36.740,371.871 35.832,371.662 35.383 C 370.971 33.894,365.750 29.017,363.759 28.000 L 361.800 27.000 283.545 26.895 C 212.240 26.799,205.268 26.847,205.045 27.428 " stroke="none" fill="#ec742c" fill-rule="evenodd"></path><path id="path3" d="M204.080 25.280 C 203.718 25.642,203.600 31.202,203.600 47.847 C 203.600 72.554,203.632 72.259,200.751 74.459 C 198.798 75.951,124.511 150.244,123.980 151.236 C 123.243 152.614,122.767 152.596,162.899 152.706 C 190.575 152.781,201.886 152.939,202.266 153.255 C 202.704 153.618,202.800 160.150,202.800 189.595 C 202.800 225.305,202.804 225.498,203.629 226.546 L 204.458 227.600 253.855 227.600 C 286.110 227.600,303.513 227.739,304.002 228.001 C 305.167 228.625,304.538 229.414,296.032 238.000 C 268.206 266.088,247.095 287.522,246.820 287.968 C 246.642 288.255,237.370 297.694,226.214 308.945 C 205.090 330.247,204.905 330.439,204.114 331.777 C 203.229 333.275,203.406 374.365,204.300 375.043 C 204.876 375.481,218.661 375.577,282.313 375.587 L 359.627 375.600 361.600 374.600 C 362.685 374.050,363.804 373.597,364.087 373.593 C 365.762 373.569,372.322 367.433,373.200 365.069 C 373.459 364.371,374.060 362.915,374.535 361.832 L 375.400 359.865 375.400 199.832 C 375.400 58.292,375.331 39.684,374.800 38.800 C 374.470 38.250,373.930 37.017,373.600 36.060 C 372.371 32.495,366.392 26.875,363.428 26.497 C 362.532 26.383,361.478 25.955,361.084 25.545 C 360.187 24.611,205.011 24.349,204.080 25.280 M37.800 26.104 C 36.480 26.547,35.310 27.040,35.200 27.201 C 35.090 27.361,34.280 27.861,33.400 28.312 C 30.395 29.852,27.564 33.656,25.966 38.298 C 25.202 40.520,25.189 43.153,25.189 199.926 C 25.189 375.509,24.993 361.413,27.483 365.193 C 27.987 365.959,28.400 366.743,28.400 366.935 C 28.400 368.335,33.422 372.373,36.704 373.612 C 42.044 375.628,40.798 375.597,115.720 375.598 C 187.449 375.600,186.765 375.612,188.090 374.290 C 188.139 374.240,188.274 362.680,188.390 348.600 L 188.600 323.000 195.200 316.525 C 254.708 258.148,267.819 244.905,267.003 244.004 C 266.285 243.209,265.826 243.200,227.761 243.200 L 189.245 243.200 188.623 242.311 C 188.070 241.522,188.000 237.290,188.000 204.711 C 188.000 168.533,187.988 167.988,187.200 167.200 C 186.409 166.409,185.867 166.400,136.800 166.400 C 89.593 166.400,87.200 166.366,87.200 165.691 C 87.200 165.290,96.188 155.940,107.900 144.158 C 124.788 127.168,146.511 105.240,184.900 66.428 L 188.000 63.294 188.000 45.122 C 188.000 27.388,187.980 26.930,187.184 26.075 L 186.369 25.200 113.284 25.250 C 41.192 25.299,40.167 25.311,37.800 26.104 M360.976 26.213 C 361.404 26.536,362.233 26.800,362.821 26.800 C 365.732 26.800,372.248 33.511,373.640 37.943 L 374.600 41.000 374.600 200.200 L 374.600 359.400 373.619 362.397 C 372.168 366.828,366.883 372.106,362.400 373.600 L 359.400 374.600 282.000 374.600 L 204.600 374.600 204.497 353.317 L 204.393 332.035 205.666 330.717 C 210.775 325.431,250.420 285.137,265.601 269.800 C 308.815 226.142,307.191 227.928,304.400 227.156 C 303.850 227.004,281.225 226.862,254.123 226.840 L 204.845 226.800 204.223 225.911 C 203.671 225.123,203.599 220.988,203.594 189.411 C 203.591 169.825,203.443 153.572,203.266 153.293 C 202.505 152.094,199.577 152.000,162.903 152.000 L 125.600 152.000 125.600 151.067 C 125.600 150.096,199.727 75.585,201.744 74.528 C 204.308 73.184,204.400 72.278,204.400 48.306 C 204.400 31.926,204.518 26.442,204.880 26.080 C 205.673 25.287,359.926 25.418,360.976 26.213 M186.157 27.433 C 186.291 27.781,186.400 35.906,186.400 45.489 L 186.400 62.913 183.700 65.738 C 182.215 67.291,172.180 77.469,161.400 88.355 C 150.620 99.241,139.190 110.786,136.000 114.012 C 132.810 117.238,127.860 122.234,125.000 125.115 C 122.140 127.996,119.663 130.499,119.495 130.677 C 117.766 132.512,87.371 162.883,86.422 163.724 C 85.412 164.618,85.178 165.109,85.276 166.124 L 85.400 167.400 135.800 167.600 L 186.200 167.800 186.400 205.467 C 186.510 226.183,186.690 243.214,186.800 243.313 C 187.947 244.340,190.164 244.400,226.936 244.400 L 265.125 244.400 264.896 245.277 C 264.770 245.759,262.024 248.774,258.794 251.977 C 255.564 255.180,250.419 260.293,247.361 263.341 C 244.302 266.388,241.487 269.178,241.105 269.541 C 240.722 269.903,236.354 274.160,231.397 279.000 C 226.441 283.840,221.923 288.250,221.358 288.800 C 220.794 289.350,218.810 291.330,216.950 293.200 C 215.090 295.070,212.990 297.145,212.284 297.812 C 211.578 298.478,210.460 299.586,209.800 300.275 C 209.140 300.963,207.907 302.218,207.060 303.063 C 206.213 303.908,205.403 304.733,205.260 304.895 C 205.117 305.058,200.900 309.198,195.890 314.095 L 186.780 323.000 186.790 347.726 C 186.797 364.025,186.659 372.716,186.386 373.226 C 185.897 374.140,50.657 374.466,43.045 373.572 C 36.327 372.783,32.121 370.521,29.715 366.400 C 29.009 365.190,28.221 363.958,27.965 363.663 C 26.636 362.131,26.626 360.988,26.500 203.000 C 26.372 41.436,26.395 38.750,27.931 36.492 C 28.339 35.891,29.305 34.410,30.077 33.200 C 31.408 31.112,32.794 30.042,37.712 27.306 C 39.232 26.460,185.832 26.585,186.157 27.433 M386.161 30.874 C 385.968 31.387,385.722 106.823,385.607 200.258 C 385.419 353.202,385.342 368.784,384.766 369.458 C 384.418 369.866,383.502 371.550,382.731 373.200 C 380.524 377.925,377.546 380.711,371.771 383.452 L 368.932 384.800 199.966 384.786 C 54.249 384.774,30.862 384.693,30.000 384.200 C 29.450 383.886,28.640 383.622,28.200 383.613 C 27.760 383.605,25.830 382.810,23.912 381.846 C 20.723 380.245,20.404 380.158,20.188 380.839 C 19.550 382.847,28.902 392.246,32.133 392.847 C 33.050 393.017,34.610 393.384,35.600 393.661 C 37.795 394.277,371.914 394.656,373.600 394.045 C 374.150 393.845,375.621 393.381,376.870 393.013 C 378.141 392.639,379.679 391.829,380.366 391.172 C 381.041 390.528,381.777 390.000,382.001 390.000 C 383.128 390.000,387.242 385.117,388.949 381.754 C 391.836 376.065,391.649 388.891,391.514 205.200 L 391.392 38.600 389.276 34.600 C 386.768 29.859,386.610 29.671,386.161 30.874 M385.600 375.879 C 385.600 377.460,385.381 377.948,384.000 379.446 C 383.120 380.401,382.400 381.512,382.400 381.915 C 382.400 382.925,380.132 385.158,378.200 386.051 C 377.320 386.457,376.330 386.941,376.000 387.127 C 375.670 387.312,374.644 387.854,373.721 388.332 L 372.042 389.200 205.321 389.197 C 40.196 389.195,38.589 389.187,37.406 388.408 C 36.750 387.975,35.445 387.506,34.506 387.365 C 33.568 387.224,32.800 386.950,32.800 386.756 C 32.800 386.554,104.734 386.360,202.166 386.302 L 371.533 386.200 372.750 385.300 C 373.420 384.805,374.145 384.400,374.361 384.400 C 374.578 384.400,374.990 384.066,375.277 383.657 C 375.565 383.249,376.207 382.786,376.704 382.629 C 377.794 382.285,382.669 377.444,383.011 376.366 C 383.144 375.945,383.508 375.600,383.819 375.600 C 384.130 375.600,384.497 375.151,384.635 374.603 C 385.020 373.067,385.600 373.834,385.600 375.879 " stroke="none" fill="#a99c94" fill-rule="evenodd"></path><path id="path4" d="M204.880 26.080 C 204.518 26.442,204.400 31.926,204.400 48.306 C 204.400 72.278,204.308 73.184,201.744 74.528 C 199.727 75.585,125.600 150.096,125.600 151.067 L 125.600 152.000 162.903 152.000 C 199.577 152.000,202.505 152.094,203.266 153.293 C 203.443 153.572,203.591 169.825,203.594 189.411 C 203.599 220.988,203.671 225.123,204.223 225.911 L 204.845 226.800 254.123 226.840 C 281.225 226.862,303.850 227.004,304.400 227.156 C 307.191 227.928,308.815 226.142,265.601 269.800 C 250.420 285.137,210.775 325.431,205.666 330.717 L 204.393 332.035 204.497 353.317 L 204.600 374.600 282.000 374.600 L 359.400 374.600 362.400 373.600 C 366.883 372.106,372.168 366.828,373.619 362.397 L 374.600 359.400 374.600 200.200 L 374.600 41.000 373.640 37.943 C 372.248 33.511,365.732 26.800,362.821 26.800 C 362.233 26.800,361.404 26.536,360.976 26.213 C 359.926 25.418,205.673 25.287,204.880 26.080 M363.759 28.000 C 365.750 29.017,370.971 33.894,371.662 35.383 C 371.871 35.832,372.347 36.740,372.721 37.400 C 373.357 38.523,373.400 48.905,373.400 200.000 L 373.400 361.400 372.409 363.340 C 371.112 365.880,365.873 371.132,363.372 372.400 L 361.400 373.400 283.311 373.512 L 205.221 373.625 204.994 372.712 C 204.870 372.211,204.820 362.890,204.884 352.000 L 205.000 332.200 215.705 321.400 C 221.593 315.460,226.633 310.373,226.905 310.096 C 227.177 309.818,228.705 308.362,230.300 306.859 C 231.895 305.356,233.200 304.005,233.200 303.858 C 233.200 303.710,236.440 300.364,240.400 296.422 C 244.360 292.479,247.600 289.160,247.600 289.046 C 247.600 288.931,255.925 280.462,266.100 270.226 C 276.275 259.990,287.536 248.597,291.124 244.908 C 298.426 237.401,298.261 237.569,299.915 235.915 C 300.575 235.255,301.359 234.458,301.658 234.143 C 301.956 233.827,303.157 232.711,304.328 231.662 C 306.779 229.464,307.680 226.733,306.117 226.237 C 305.690 226.102,282.764 225.948,255.170 225.895 L 205.000 225.800 204.800 189.314 C 204.625 157.408,204.524 152.752,203.993 152.221 C 202.692 150.920,199.225 150.800,163.012 150.800 C 143.169 150.800,126.826 150.693,126.694 150.561 C 126.376 150.242,201.106 75.681,202.446 74.981 C 204.800 73.752,204.800 73.753,204.800 49.872 C 204.800 37.879,204.910 27.778,205.045 27.428 C 205.268 26.847,212.240 26.799,283.545 26.895 L 361.800 27.000 363.759 28.000 " stroke="none" fill="#cc7d4d" fill-rule="evenodd"></path></g></svg>