<svg id="Capa_1" enable-background="new 0 0 511.94 511.94" height="512" viewBox="0 0 511.94 511.94" width="512" xmlns="http://www.w3.org/2000/svg"><g><path d="m392.49 135.41h-89.81l-2.9-11.26c-5.14-19.97-23.16-33.92-43.81-33.92-24.95 0-45.24 20.29-45.24 45.24v60.18h-90.23v-60.18c0-74.7 60.77-135.47 135.47-135.47 68.2 0 125.99 50.97 134.41 118.55z" fill="#61729b"/><path d="m392.49 135.41h-89.81l-2.9-11.26c-5.14-19.97-23.16-33.92-43.81-33.92v-90.23c68.2 0 125.99 50.97 134.41 118.55z" fill="#47568c"/><path d="m466.794 30.116c-24.878 0-45.118 20.24-45.118 45.118s20.24 45.118 45.118 45.118c5.301 0 10.389-.926 15.118-2.614v93.084h-45.235v30h75.235v-165.588c-.001-24.878-20.24-45.118-45.118-45.118z" fill="#6aa9ff"/><path d="m45.146 120.352c24.878 0 45.118-20.24 45.118-45.118s-20.24-45.118-45.118-45.118-45.117 20.24-45.117 45.118v165.588h75.235v-30h-45.235v-93.084c4.729 1.687 9.816 2.614 15.117 2.614z" fill="#7ed8f6"/><path d="m75.264 331.293h-45.235v-30.177h-30v90.353h30v-30.176h45.235z" fill="#7ed8f6"/><path d="m481.911 301.116v30.177h-45.235v30h45.235v30.176h30v-90.353z" fill="#6aa9ff"/><path d="m511.911 511.94h-30v-60.294h-45.235v-30h75.235z" fill="#6aa9ff"/><path d="m30.029 511.94h-30v-90.294h75.235v30h-45.235z" fill="#7ed8f6"/><path d="m451.68 240.94-15.53 15.97 15.53 14.03v30.24l-12.09 15.38 12.09 14.62v30.23l-13.95 15 13.95 15v30.24l-15 15.53 15 14.47v60.23h-391.42v-60.23l11.06-15-11.06-15v-30.95l11.77-14.29-11.77-15v-30.23l16.83-15.53-16.83-14.47v-30.24l15-15-15-15v-75.29h391.42z" fill="#edf5ff"/><path d="m451.68 240.94-15.53 15.97 15.53 14.03v30.24l-12.09 15.38 12.09 14.62v30.23l-13.95 15 13.95 15v30.24l-15 15.53 15 14.47v60.23h-195.71v-346.23h195.71z" fill="#d5e8fe"/><path d="m361.32 331.23c0 27.63-10.9 54.13-30.11 73.74v46.68h-60.24l-15-15-15 15h-60.24v-46.68c-19.21-19.61-30.11-46.11-30.11-73.74 0-58.09 47.26-105.36 105.35-105.36s105.35 47.27 105.35 105.36z" fill="#ff667f"/><path d="m361.32 331.23c0 27.63-10.9 54.13-30.11 73.74v46.68h-60.24l-15-15v-210.78c58.09 0 105.35 47.27 105.35 105.36z" fill="#c43970"/><path d="m240.97 391.47h30v60.18h-30z" fill="#61729b"/><path d="m255.97 391.47h15v60.18h-15z" fill="#47568c"/><path d="m210.852 316.23h30v30h-30z" fill="#61729b"/><g fill="#47568c"><path d="m271.146 316.23h30v30h-30z"/><path d="m391.5 240.94h60.18v30h-60.18z"/><path d="m391.5 301.18h60.18v30h-60.18z"/><path d="m391.5 361.41h60.18v30h-60.18z"/><path d="m391.5 421.65h60.18v30h-60.18z"/></g><path d="m60.26 240.94h60.18v30h-60.18z" fill="#61729b"/><path d="m60.26 301.18h60.18v30h-60.18z" fill="#61729b"/><path d="m60.26 361.41h60.18v30h-60.18z" fill="#61729b"/><path d="m60.26 421.65h60.18v30h-60.18z" fill="#61729b"/></g></svg>