<svg id="svg" version="1.1" xmlns="http://www.w3.org/2000/svg" xmlns:xlink="http://www.w3.org/1999/xlink" width="400" height="300" viewBox="0, 0, 400,300"><g id="svgg"><path id="path0" d="M111.928 87.841 C 111.928 87.997,111.354 88.100,110.653 88.070 C 109.799 88.034,109.246 88.174,108.980 88.494 C 108.761 88.757,108.668 88.803,108.773 88.597 C 108.877 88.391,108.820 88.222,108.645 88.222 C 108.470 88.222,108.327 88.357,108.327 88.522 C 108.327 88.687,108.192 88.822,108.027 88.822 C 107.581 88.822,106.545 89.941,106.777 90.173 C 106.887 90.283,106.839 90.328,106.671 90.273 C 106.503 90.218,105.978 90.476,105.505 90.848 C 105.032 91.219,104.752 91.523,104.882 91.523 C 105.012 91.523,104.794 91.790,104.397 92.117 C 104.000 92.444,103.504 92.858,103.294 93.036 C 103.084 93.214,102.982 93.472,103.067 93.609 C 103.152 93.747,102.879 93.945,102.461 94.050 C 102.043 94.155,101.782 94.372,101.881 94.532 C 101.980 94.693,101.910 94.824,101.725 94.824 C 101.541 94.824,101.464 94.944,101.556 95.092 C 101.647 95.239,101.379 95.446,100.961 95.551 C 100.543 95.656,100.282 95.873,100.381 96.033 C 100.480 96.193,100.418 96.324,100.243 96.324 C 100.068 96.324,99.925 96.535,99.925 96.792 C 99.925 97.049,99.801 97.183,99.649 97.089 C 99.292 96.868,98.425 97.735,98.425 98.314 C 98.425 98.559,98.298 98.682,98.142 98.586 C 97.766 98.353,96.594 99.633,96.831 100.017 C 96.934 100.184,96.867 100.225,96.679 100.109 C 96.257 99.848,94.986 101.270,94.939 102.056 C 94.912 102.512,95.044 102.601,95.539 102.463 C 95.999 102.335,96.060 102.365,95.761 102.572 C 95.312 102.883,95.586 103.647,96.045 103.363 C 96.198 103.268,96.324 103.332,96.324 103.505 C 96.324 103.979,97.296 105.017,97.578 104.843 C 97.714 104.759,97.824 104.909,97.824 105.176 C 97.824 105.443,97.944 105.588,98.090 105.497 C 98.237 105.407,98.430 105.615,98.520 105.960 C 98.611 106.305,98.828 106.498,99.005 106.389 C 99.181 106.280,99.325 106.409,99.325 106.677 C 99.325 106.944,99.445 107.088,99.591 106.998 C 99.737 106.907,99.931 107.116,100.021 107.460 C 100.111 107.805,100.329 107.998,100.505 107.889 C 100.682 107.780,100.825 107.909,100.825 108.177 C 100.825 108.444,100.945 108.589,101.091 108.498 C 101.237 108.408,101.431 108.616,101.521 108.961 C 101.611 109.306,101.829 109.499,102.005 109.390 C 102.182 109.281,102.326 109.410,102.326 109.677 C 102.326 109.944,102.445 110.089,102.592 109.999 C 102.738 109.908,102.931 110.116,103.021 110.461 C 103.112 110.806,103.330 110.999,103.506 110.890 C 103.682 110.781,103.826 110.910,103.826 111.178 C 103.826 111.445,103.946 111.589,104.092 111.499 C 104.238 111.409,104.432 111.617,104.522 111.962 C 104.612 112.306,104.830 112.499,105.006 112.391 C 105.182 112.282,105.326 112.333,105.326 112.505 C 105.326 113.240,109.314 116.819,109.800 116.520 C 110.063 116.359,111.147 116.197,112.210 116.160 C 113.274 116.123,114.251 116.027,114.383 115.946 C 114.514 115.864,114.541 116.007,114.443 116.263 C 114.315 116.598,114.451 116.729,114.926 116.729 C 115.753 116.729,117.699 117.616,118.019 118.138 C 118.151 118.354,118.463 118.530,118.712 118.530 C 118.982 118.530,119.077 118.672,118.948 118.881 C 118.804 119.115,118.893 119.170,119.215 119.046 C 119.555 118.916,119.650 118.990,119.533 119.295 C 119.429 119.564,119.550 119.730,119.848 119.730 C 120.113 119.730,120.330 119.932,120.330 120.180 C 120.330 120.428,120.450 120.630,120.596 120.630 C 120.836 120.630,121.182 121.854,121.276 123.031 C 121.296 123.278,121.442 123.645,121.600 123.846 C 121.943 124.282,121.794 127.300,121.415 127.575 C 121.269 127.681,121.241 128.136,121.354 128.585 C 121.467 129.035,121.642 129.321,121.743 129.220 C 121.844 129.119,122.115 129.305,122.346 129.634 C 122.576 129.963,122.938 130.233,123.150 130.233 C 123.361 130.233,123.688 130.570,123.876 130.983 C 124.064 131.395,124.402 131.733,124.627 131.733 C 124.851 131.733,125.189 132.071,125.377 132.483 C 125.565 132.896,125.864 133.233,126.043 133.233 C 126.221 133.233,126.284 133.368,126.182 133.533 C 126.080 133.698,126.139 133.833,126.314 133.833 C 126.746 133.833,127.825 134.940,127.607 135.159 C 127.511 135.255,127.589 135.334,127.782 135.334 C 127.974 135.334,128.391 135.593,128.707 135.909 C 129.024 136.225,129.204 136.563,129.107 136.659 C 129.011 136.755,129.090 136.834,129.282 136.834 C 129.475 136.834,129.902 137.104,130.233 137.434 C 130.563 137.764,130.746 138.035,130.641 138.035 C 130.535 138.035,131.554 139.126,132.904 140.461 C 135.019 142.550,135.426 142.833,135.831 142.497 C 136.441 141.990,140.323 142.069,140.963 142.600 C 141.219 142.812,141.441 142.932,141.456 142.867 C 141.519 142.608,142.975 143.242,143.552 143.780 C 143.889 144.094,144.346 144.282,144.566 144.197 C 144.787 144.112,144.894 144.162,144.804 144.308 C 144.713 144.454,144.850 144.654,145.107 144.753 C 145.364 144.851,145.490 145.068,145.388 145.234 C 145.285 145.400,145.310 145.537,145.444 145.538 C 145.677 145.540,146.534 146.864,146.705 147.487 C 146.751 147.652,146.943 147.975,147.134 148.204 C 147.324 148.433,147.438 148.939,147.387 149.329 C 147.336 149.719,147.421 150.038,147.577 150.038 C 147.919 150.038,147.863 151.830,147.502 152.414 C 147.327 152.697,147.355 152.762,147.591 152.617 C 147.781 152.499,147.937 152.534,147.937 152.695 C 147.937 152.856,147.806 153.033,147.646 153.088 C 147.487 153.143,147.323 153.621,147.284 154.151 C 147.244 154.680,147.149 155.051,147.073 154.975 C 146.899 154.801,145.374 157.309,145.467 157.614 C 145.505 157.738,145.379 157.806,145.186 157.764 C 144.993 157.723,144.671 158.005,144.470 158.391 C 144.241 158.831,144.056 158.950,143.976 158.710 C 143.885 158.436,143.679 158.497,143.248 158.927 C 142.918 159.257,142.469 159.468,142.250 159.395 C 142.013 159.316,141.937 159.399,142.061 159.601 C 142.188 159.807,142.051 159.940,141.713 159.940 C 141.406 159.940,140.973 160.109,140.751 160.315 C 140.423 160.620,140.394 160.606,140.599 160.240 C 140.798 159.884,140.760 159.858,140.418 160.116 C 139.819 160.568,136.432 160.288,135.509 159.710 C 135.330 159.598,134.984 159.477,134.739 159.440 C 134.495 159.403,134.247 159.230,134.189 159.056 C 134.131 158.882,133.908 158.740,133.693 158.740 C 133.478 158.740,133.081 158.402,132.811 157.989 C 132.540 157.577,132.124 157.239,131.885 157.239 C 131.623 157.239,131.520 157.061,131.624 156.789 C 131.748 156.468,131.594 156.338,131.090 156.334 C 130.523 156.331,130.472 156.272,130.833 156.039 C 131.133 155.845,131.158 155.747,130.908 155.744 C 130.701 155.741,130.554 155.638,130.581 155.514 C 130.608 155.390,130.461 154.884,130.255 154.389 C 130.048 153.893,129.807 153.052,129.718 152.519 C 129.618 151.922,129.426 151.622,129.219 151.738 C 129.031 151.843,129.048 151.747,129.257 151.522 C 129.464 151.300,129.632 150.748,129.632 150.295 C 129.632 149.843,129.767 149.389,129.932 149.287 C 130.098 149.185,130.233 148.547,130.233 147.869 C 130.233 147.191,130.145 146.724,130.038 146.831 C 129.815 147.054,128.732 145.900,128.732 145.440 C 128.732 145.273,128.645 145.224,128.538 145.331 C 128.315 145.553,127.232 144.400,127.232 143.940 C 127.232 143.773,127.144 143.723,127.037 143.831 C 126.815 144.053,125.731 142.899,125.731 142.440 C 125.731 142.272,125.644 142.223,125.537 142.330 C 125.338 142.529,124.231 141.421,124.231 141.023 C 124.231 140.901,123.995 140.821,123.706 140.844 C 123.378 140.870,123.196 140.690,123.222 140.363 C 123.245 140.076,123.143 139.915,122.997 140.006 C 122.850 140.096,122.731 139.974,122.731 139.735 C 122.731 139.495,122.509 139.214,122.238 139.110 C 121.826 138.952,121.808 138.996,122.125 139.378 C 122.341 139.638,122.373 139.835,122.199 139.835 C 121.798 139.835,121.475 138.967,121.726 138.561 C 121.842 138.373,121.781 138.330,121.577 138.456 C 121.386 138.574,121.230 138.527,121.230 138.352 C 121.230 138.178,120.960 137.764,120.630 137.434 C 120.300 137.104,120.030 136.979,120.030 137.156 C 120.030 137.606,119.017 136.546,118.939 136.014 C 118.850 135.413,118.531 135.138,118.525 135.659 C 118.523 135.893,118.351 135.746,118.143 135.334 C 117.650 134.357,116.267 134.081,116.509 135.008 C 116.599 135.353,116.551 135.559,116.401 135.467 C 116.240 135.367,116.133 141.982,116.139 151.745 L 116.148 168.192 116.869 169.011 C 117.265 169.461,117.767 169.866,117.984 169.911 C 118.202 169.956,118.683 170.390,119.055 170.876 C 119.426 171.362,119.732 171.632,119.734 171.476 C 119.739 171.155,120.522 172.421,120.810 173.215 C 120.913 173.502,121.110 173.668,121.246 173.584 C 121.382 173.500,121.429 173.782,121.351 174.211 C 121.247 174.786,121.312 174.934,121.595 174.774 C 121.898 174.603,121.903 174.640,121.619 174.946 C 121.359 175.227,121.346 175.500,121.573 175.923 C 121.746 176.246,121.814 177.002,121.724 177.603 C 121.635 178.203,121.521 179.032,121.471 179.445 C 121.421 179.857,121.245 180.294,121.080 180.416 C 120.903 180.546,120.961 180.638,121.222 180.641 C 121.517 180.644,121.442 180.800,120.997 181.112 C 120.630 181.369,120.330 181.834,120.330 182.145 C 120.330 182.456,120.174 182.807,119.984 182.924 C 119.754 183.066,119.719 183.006,119.880 182.746 C 120.041 182.486,120.006 182.425,119.776 182.567 C 119.586 182.685,119.430 182.976,119.430 183.214 C 119.430 183.451,119.287 183.646,119.112 183.646 C 118.937 183.646,118.891 183.802,119.008 183.992 C 119.135 184.198,119.091 184.258,118.900 184.140 C 118.723 184.030,118.398 184.118,118.179 184.335 C 117.959 184.552,117.543 184.819,117.254 184.929 C 116.965 185.038,116.729 185.238,116.729 185.373 C 116.729 185.508,116.309 185.651,115.796 185.690 C 115.282 185.729,114.603 185.899,114.287 186.068 C 113.597 186.438,110.713 186.314,110.953 185.925 C 111.046 185.775,110.831 185.728,110.475 185.821 C 110.119 185.914,109.752 185.868,109.660 185.718 C 109.568 185.569,109.230 185.446,108.910 185.446 C 108.589 185.446,108.327 185.303,108.327 185.129 C 108.327 184.954,108.201 184.889,108.048 184.984 C 107.894 185.079,107.556 184.854,107.297 184.484 C 107.038 184.115,106.827 183.978,106.827 184.179 C 106.827 184.549,106.222 184.033,105.326 182.900 C 104.973 182.453,104.967 182.385,105.298 182.584 C 105.757 182.861,105.757 182.861,104.497 180.837 C 104.016 180.064,103.776 179.231,103.776 178.338 C 103.776 176.461,104.150 173.925,104.455 173.730 C 104.596 173.641,104.758 173.258,104.816 172.881 C 104.873 172.503,105.086 172.091,105.289 171.966 C 105.491 171.841,105.678 171.457,105.704 171.112 C 105.730 170.767,105.857 170.550,105.986 170.630 C 106.116 170.710,106.830 170.356,107.574 169.844 C 108.318 169.332,108.927 168.997,108.927 169.099 C 108.927 169.202,109.130 169.083,109.377 168.835 C 110.074 168.138,110.056 134.285,109.358 134.018 C 109.095 133.917,108.984 133.684,109.105 133.488 C 109.255 133.246,109.114 133.193,108.644 133.316 C 108.272 133.413,108.042 133.418,108.133 133.327 C 108.309 133.151,107.603 132.333,107.275 132.333 C 107.167 132.333,106.584 131.816,105.978 131.183 C 104.523 129.664,103.883 128.861,104.351 129.142 C 104.557 129.266,104.726 129.236,104.726 129.075 C 104.726 128.914,104.585 128.735,104.413 128.678 C 103.873 128.498,103.674 125.854,103.971 122.802 C 104.120 121.268,104.068 120.889,103.690 120.744 C 103.435 120.646,103.226 120.378,103.226 120.148 C 103.226 119.918,103.023 119.730,102.776 119.730 C 102.528 119.730,102.326 119.585,102.326 119.408 C 102.326 118.993,101.562 118.230,101.147 118.230 C 100.970 118.230,100.825 118.085,100.825 117.908 C 100.825 117.396,99.930 116.593,99.905 117.083 C 99.894 117.301,99.727 117.142,99.535 116.729 C 99.097 115.789,98.729 115.404,98.007 115.130 C 97.694 115.012,97.517 114.836,97.613 114.740 C 97.892 114.461,97.117 113.789,96.701 113.948 C 96.385 114.069,96.156 113.613,96.399 113.346 C 96.635 113.087,95.504 112.342,95.053 112.460 C 94.657 112.563,94.563 112.474,94.698 112.122 C 94.922 111.539,94.064 110.605,93.579 110.905 C 93.378 111.029,93.311 110.990,93.421 110.813 C 93.696 110.368,92.531 109.125,92.093 109.396 C 91.879 109.528,91.808 109.494,91.920 109.312 C 92.172 108.905,91.248 107.868,90.393 107.598 C 90.020 107.480,89.791 107.258,89.886 107.105 C 89.980 106.952,89.929 106.827,89.772 106.827 C 89.615 106.827,89.409 107.029,89.314 107.277 C 89.219 107.524,89.013 107.727,88.856 107.727 C 88.345 107.727,84.635 111.707,84.829 112.047 C 84.933 112.229,84.914 112.285,84.787 112.171 C 84.528 111.938,81.428 114.922,81.545 115.292 C 81.587 115.422,81.477 115.529,81.303 115.529 C 81.128 115.529,81.081 115.685,81.199 115.875 C 81.328 116.084,81.282 116.141,81.083 116.018 C 80.891 115.899,77.386 119.217,72.741 123.914 C 68.334 128.369,64.593 131.930,64.426 131.827 C 64.260 131.724,64.207 131.776,64.309 131.941 C 64.536 132.307,63.159 133.567,62.843 133.284 C 62.720 133.174,62.704 133.232,62.807 133.413 C 63.030 133.803,61.669 135.077,61.343 134.784 C 61.220 134.674,61.204 134.732,61.307 134.914 C 61.524 135.295,60.167 136.586,59.866 136.285 C 59.755 136.174,59.710 136.223,59.765 136.394 C 59.820 136.564,58.683 137.864,57.239 139.284 C 55.795 140.703,54.614 141.994,54.614 142.152 C 54.614 142.310,54.276 142.593,53.863 142.781 C 53.451 142.969,53.113 143.307,53.113 143.531 C 53.113 143.756,52.773 144.095,52.357 144.284 C 51.941 144.474,51.472 144.968,51.314 145.383 C 51.157 145.797,50.889 146.137,50.720 146.137 C 50.551 146.137,50.441 146.238,50.476 146.362 C 50.511 146.485,50.371 146.892,50.164 147.265 C 49.718 148.069,49.722 153.730,50.169 153.454 C 50.325 153.357,50.428 153.460,50.397 153.683 C 50.294 154.434,50.411 154.839,50.730 154.839 C 50.905 154.839,50.951 154.670,50.832 154.464 C 50.714 154.257,50.728 154.190,50.864 154.313 C 51.000 154.437,51.150 154.897,51.197 155.336 C 51.287 156.181,51.842 156.718,52.320 156.423 C 52.477 156.326,52.521 156.383,52.418 156.550 C 52.315 156.718,53.442 158.075,54.922 159.567 C 57.402 162.066,57.764 162.342,57.643 161.643 C 57.619 161.507,57.732 161.478,57.894 161.578 C 58.056 161.678,58.112 161.958,58.019 162.200 C 57.926 162.442,57.991 162.641,58.162 162.641 C 58.334 162.641,58.560 162.911,58.665 163.241 C 58.769 163.571,59.026 163.841,59.234 163.841 C 59.443 163.841,59.794 164.179,60.015 164.591 C 60.236 165.004,60.573 165.341,60.765 165.341 C 60.957 165.341,61.297 165.684,61.521 166.102 C 61.745 166.520,62.079 166.805,62.263 166.734 C 62.447 166.664,62.774 167.005,62.990 167.493 C 63.235 168.045,63.540 168.320,63.800 168.221 C 64.029 168.133,64.216 168.229,64.216 168.435 C 64.216 168.829,65.411 169.997,65.423 169.614 C 65.427 169.492,65.650 169.838,65.918 170.383 C 66.215 170.986,66.564 171.312,66.811 171.217 C 67.181 171.075,67.355 171.406,67.245 172.040 C 67.221 172.176,67.340 172.202,67.509 172.098 C 67.679 171.993,67.817 172.133,67.817 172.407 C 67.817 172.729,67.978 172.846,68.267 172.735 C 68.544 172.628,68.717 172.735,68.717 173.012 C 68.717 173.260,68.997 173.566,69.340 173.693 C 69.682 173.820,69.918 173.987,69.865 174.066 C 69.705 174.299,71.026 175.844,71.386 175.844 C 71.569 175.844,71.718 175.949,71.718 176.077 C 71.718 176.350,73.575 178.430,73.720 178.320 C 73.941 178.151,74.415 178.260,74.371 178.470 C 74.278 178.911,74.786 179.739,75.050 179.575 C 75.198 179.484,75.319 179.620,75.319 179.877 C 75.319 180.143,75.575 180.345,75.910 180.345 C 76.311 180.345,76.445 180.489,76.328 180.795 C 76.204 181.116,76.358 181.247,76.862 181.250 C 77.252 181.252,77.427 181.354,77.253 181.475 C 76.819 181.777,77.767 182.668,78.420 182.572 C 78.695 182.532,78.920 182.622,78.920 182.772 C 78.920 182.923,78.785 183.046,78.620 183.046 C 78.455 183.046,78.556 183.294,78.845 183.598 C 79.178 183.948,79.497 184.053,79.718 183.883 C 79.933 183.719,80.155 183.759,80.296 183.989 C 80.423 184.193,80.376 184.411,80.192 184.472 C 79.979 184.543,80.041 184.777,80.364 185.117 C 80.685 185.455,80.998 185.552,81.219 185.384 C 81.433 185.219,81.655 185.260,81.797 185.489 C 81.923 185.694,81.876 185.911,81.692 185.973 C 81.479 186.044,81.541 186.277,81.864 186.617 C 82.188 186.958,82.497 187.053,82.722 186.882 C 82.961 186.698,83.049 186.777,82.997 187.130 C 82.915 187.690,83.729 188.728,84.096 188.532 C 84.220 188.466,84.323 188.656,84.326 188.955 C 84.330 189.415,84.375 189.429,84.621 189.047 C 84.870 188.663,84.913 188.674,84.917 189.122 C 84.919 189.411,85.047 189.647,85.201 189.647 C 85.355 189.647,85.572 189.935,85.684 190.287 C 85.844 190.790,85.943 190.838,86.150 190.512 C 86.358 190.183,86.413 190.206,86.417 190.623 C 86.420 190.911,86.548 191.148,86.701 191.148 C 86.855 191.148,87.073 191.436,87.184 191.788 C 87.344 192.290,87.444 192.338,87.650 192.013 C 87.858 191.684,87.914 191.707,87.917 192.123 C 87.920 192.412,88.048 192.648,88.202 192.648 C 88.356 192.648,88.573 192.936,88.685 193.288 C 88.844 193.791,88.944 193.839,89.150 193.513 C 89.365 193.174,89.414 193.185,89.418 193.573 C 89.422 194.027,100.972 205.851,101.411 205.851 C 101.528 205.851,101.805 206.189,102.026 206.602 C 102.246 207.014,102.592 207.352,102.794 207.352 C 102.996 207.352,103.243 207.563,103.342 207.821 C 103.441 208.079,103.648 208.212,103.803 208.116 C 103.958 208.020,104.182 208.100,104.302 208.294 C 104.437 208.513,104.389 208.564,104.172 208.431 C 103.982 208.313,103.826 208.360,103.826 208.534 C 103.826 208.709,104.014 208.852,104.244 208.852 C 104.474 208.852,104.743 209.063,104.842 209.321 C 104.941 209.579,105.156 209.707,105.321 209.606 C 105.493 209.499,105.544 209.618,105.441 209.887 C 105.339 210.152,105.421 210.353,105.630 210.353 C 105.832 210.353,106.357 210.764,106.795 211.266 C 107.234 211.769,107.884 212.202,108.239 212.229 C 108.595 212.256,108.828 212.370,108.758 212.484 C 108.574 212.782,109.522 213.092,109.901 212.858 C 110.077 212.749,110.135 212.799,110.030 212.969 C 109.756 213.411,111.889 213.695,112.607 213.311 C 113.066 213.066,113.148 213.079,112.968 213.371 C 112.793 213.654,112.915 213.692,113.456 213.525 C 113.854 213.402,114.444 213.307,114.769 213.314 C 115.094 213.320,115.432 213.224,115.520 213.100 C 115.830 212.660,117.734 211.441,117.487 211.840 C 117.319 212.113,117.350 212.175,117.583 212.032 C 117.774 211.914,117.929 211.631,117.929 211.403 C 117.929 211.175,118.085 210.892,118.276 210.774 C 118.491 210.641,118.541 210.692,118.408 210.906 C 118.290 211.097,118.335 211.253,118.506 211.253 C 118.678 211.253,118.903 210.916,119.006 210.505 C 119.109 210.093,119.314 209.831,119.462 209.922 C 119.609 210.013,119.730 209.937,119.730 209.752 C 119.730 209.568,119.861 209.498,120.021 209.597 C 120.181 209.696,120.398 209.435,120.503 209.017 C 120.608 208.598,120.815 208.331,120.962 208.422 C 121.110 208.513,121.230 208.437,121.230 208.252 C 121.230 208.068,121.361 207.998,121.522 208.097 C 121.682 208.196,121.899 207.934,122.004 207.516 C 122.109 207.098,122.315 206.830,122.463 206.922 C 122.610 207.013,122.731 206.936,122.731 206.752 C 122.731 206.567,122.862 206.497,123.022 206.596 C 123.182 206.695,123.399 206.434,123.504 206.016 C 123.609 205.598,123.816 205.330,123.963 205.421 C 124.110 205.512,124.231 205.436,124.231 205.251 C 124.231 205.067,124.366 204.999,124.531 205.101 C 124.696 205.203,124.831 205.164,124.831 205.015 C 124.831 204.651,126.028 203.284,126.044 203.630 C 126.050 203.779,126.257 203.530,126.503 203.076 C 126.749 202.622,127.127 202.251,127.343 202.251 C 127.559 202.251,127.889 201.913,128.077 201.500 C 128.265 201.088,128.603 200.750,128.828 200.750 C 129.052 200.750,129.390 200.413,129.578 200.000 C 129.766 199.587,130.109 199.250,130.340 199.250 C 130.571 199.250,130.924 198.854,131.124 198.370 C 131.325 197.886,131.654 197.553,131.855 197.630 C 132.056 197.707,132.404 197.428,132.628 197.010 C 132.851 196.591,133.192 196.249,133.383 196.249 C 133.575 196.249,133.913 195.911,134.134 195.499 C 134.354 195.086,134.692 194.749,134.884 194.749 C 135.076 194.749,135.413 194.411,135.634 193.998 C 135.855 193.586,136.183 193.248,136.363 193.248 C 136.801 193.248,137.500 192.097,137.279 191.739 C 137.181 191.581,137.316 191.536,137.583 191.639 C 138.114 191.843,138.994 190.915,138.799 190.357 C 138.730 190.159,138.897 190.072,139.196 190.151 C 139.529 190.238,139.860 190.011,140.125 189.516 C 140.351 189.093,140.701 188.747,140.901 188.747 C 141.101 188.747,141.339 188.467,141.428 188.125 C 141.518 187.782,141.871 187.429,142.213 187.340 C 142.556 187.250,142.836 186.990,142.836 186.762 C 142.836 186.533,142.980 186.347,143.157 186.347 C 143.573 186.347,144.336 185.583,144.336 185.168 C 144.336 184.991,144.481 184.846,144.658 184.846 C 145.073 184.846,145.836 184.083,145.836 183.667 C 145.836 183.491,145.981 183.346,146.158 183.346 C 146.573 183.346,147.337 182.582,147.337 182.167 C 147.337 181.990,147.482 181.845,147.658 181.845 C 148.074 181.845,148.837 181.082,148.837 180.667 C 148.837 180.490,148.982 180.345,149.159 180.345 C 149.574 180.345,150.338 179.582,150.338 179.166 C 150.338 178.989,150.482 178.845,150.659 178.845 C 151.075 178.845,151.838 178.081,151.838 177.666 C 151.838 177.489,151.983 177.344,152.159 177.344 C 152.575 177.344,153.338 176.581,153.338 176.165 C 153.338 175.989,153.518 175.844,153.738 175.844 C 153.957 175.844,154.318 175.506,154.539 175.094 C 154.759 174.681,155.097 174.344,155.289 174.344 C 155.481 174.344,155.818 174.006,156.039 173.593 C 156.260 173.181,156.609 172.843,156.815 172.843 C 157.021 172.843,157.362 172.453,157.573 171.975 C 157.785 171.498,158.118 171.169,158.315 171.244 C 158.512 171.320,158.849 170.982,159.065 170.494 C 159.281 170.006,159.619 169.668,159.815 169.744 C 160.012 169.819,160.350 169.482,160.566 168.994 C 160.782 168.505,161.119 168.168,161.316 168.243 C 161.512 168.319,161.850 167.981,162.066 167.493 C 162.282 167.005,162.620 166.668,162.816 166.743 C 163.013 166.818,163.352 166.476,163.571 165.982 C 163.789 165.489,164.056 165.139,164.163 165.205 C 164.405 165.354,166.114 163.473,166.014 163.166 C 165.974 163.042,166.043 162.973,166.167 163.013 C 166.290 163.053,166.725 162.851,167.134 162.563 C 167.542 162.276,167.744 162.036,167.584 162.031 C 167.423 162.026,167.528 161.885,167.817 161.716 C 168.106 161.548,168.342 161.215,168.342 160.975 C 168.342 160.736,168.461 160.540,168.606 160.540 C 169.017 160.540,174.044 155.604,174.044 155.199 C 174.044 155.001,174.184 154.839,174.357 154.839 C 174.529 154.839,174.648 154.670,174.621 154.464 C 174.509 153.595,174.665 153.016,174.962 153.199 C 175.172 153.330,175.239 152.985,175.158 152.178 C 175.091 151.508,175.149 151.029,175.286 151.114 C 175.707 151.374,175.193 148.422,174.724 147.881 C 174.482 147.602,174.370 147.236,174.475 147.067 C 174.580 146.897,174.402 146.495,174.079 146.172 C 173.757 145.850,173.562 145.518,173.646 145.434 C 173.730 145.350,173.246 144.916,172.571 144.469 C 171.399 143.693,170.921 143.196,171.718 143.582 C 171.924 143.682,171.823 143.561,171.493 143.313 C 170.198 142.340,169.712 141.900,170.143 142.089 C 170.390 142.198,170.255 142.009,169.842 141.668 C 169.430 141.327,168.991 141.046,168.867 141.042 C 168.743 141.038,168.676 140.934,168.717 140.810 C 168.758 140.686,168.672 140.564,168.525 140.537 C 168.377 140.511,167.993 140.072,167.670 139.562 C 167.347 139.052,166.971 138.705,166.834 138.789 C 166.697 138.874,166.508 138.702,166.414 138.407 C 166.181 137.670,136.444 108.027,135.939 108.027 C 135.716 108.027,135.624 107.937,135.735 107.826 C 136.015 107.546,135.037 106.527,134.487 106.527 C 134.238 106.527,134.124 106.436,134.234 106.326 C 134.515 106.045,133.537 105.026,132.987 105.026 C 132.737 105.026,132.623 104.936,132.734 104.826 C 133.015 104.545,132.037 103.526,131.486 103.526 C 131.237 103.526,131.123 103.436,131.233 103.325 C 131.514 103.044,130.536 102.026,129.986 102.026 C 129.737 102.026,129.623 101.935,129.733 101.825 C 130.014 101.544,129.036 100.525,128.486 100.525 C 128.236 100.525,128.122 100.435,128.233 100.324 C 128.513 100.044,127.536 99.025,126.985 99.025 C 126.736 99.025,126.622 98.934,126.732 98.824 C 127.004 98.552,126.043 97.524,125.517 97.524 C 125.285 97.524,125.159 97.422,125.237 97.296 C 125.428 96.987,117.982 89.569,117.732 89.819 C 117.438 90.114,116.705 89.405,116.929 89.042 C 117.041 88.860,116.977 88.819,116.773 88.945 C 116.577 89.066,116.345 88.951,116.241 88.682 C 116.127 88.385,115.854 88.269,115.519 88.375 C 115.222 88.470,114.891 88.405,114.784 88.231 C 114.677 88.057,114.227 87.935,113.784 87.959 C 113.341 87.983,112.742 87.902,112.453 87.780 C 112.164 87.658,111.928 87.685,111.928 87.841 " stroke="none" fill="#dc4c34" fill-rule="evenodd"></path><path id="path1" d="M281.047 87.579 C 280.959 87.721,280.217 87.916,279.397 88.013 C 278.051 88.172,275.503 89.452,275.213 90.114 C 275.156 90.246,274.803 90.651,274.429 91.014 C 273.792 91.633,273.404 92.278,272.443 94.319 C 271.923 95.422,271.903 102.387,272.419 102.559 C 272.611 102.623,272.768 103.002,272.768 103.401 C 272.768 103.800,272.903 104.126,273.068 104.126 C 273.233 104.126,273.368 104.393,273.368 104.720 C 273.368 105.491,276.504 108.627,277.276 108.627 C 277.602 108.627,277.869 108.762,277.869 108.927 C 277.869 109.092,278.196 109.227,278.595 109.227 C 278.993 109.227,279.369 109.376,279.430 109.557 C 279.571 109.980,286.875 109.997,287.663 109.576 C 287.970 109.412,288.755 109.045,289.405 108.761 C 291.094 108.023,292.586 106.533,293.624 104.548 C 295.042 101.838,294.868 92.423,293.400 92.423 C 293.275 92.423,293.173 92.196,293.173 91.919 C 293.173 91.407,291.225 89.422,290.722 89.422 C 290.571 89.422,290.174 89.167,289.839 88.856 C 289.203 88.263,287.996 87.922,286.534 87.922 C 286.060 87.922,285.671 87.787,285.671 87.622 C 285.671 87.254,281.273 87.213,281.047 87.579 M316.149 99.700 C 316.040 100.236,315.810 101.823,315.638 103.226 C 315.466 104.629,315.202 105.821,315.052 105.876 C 314.902 105.931,314.779 106.287,314.779 106.667 C 314.779 107.047,314.577 107.745,314.330 108.218 C 314.084 108.690,313.881 109.381,313.880 109.752 C 313.879 110.124,313.743 110.428,313.578 110.428 C 313.413 110.428,313.278 110.630,313.278 110.878 C 313.278 111.125,313.152 111.328,312.998 111.328 C 312.845 111.328,312.629 111.611,312.519 111.958 C 312.270 112.740,310.376 114.659,309.119 115.402 C 308.601 115.708,308.177 116.058,308.177 116.180 C 308.177 116.302,307.703 116.491,307.123 116.600 C 306.544 116.708,305.996 116.917,305.905 117.063 C 305.815 117.210,305.411 117.329,305.009 117.329 C 304.606 117.329,304.276 117.464,304.276 117.629 C 304.276 117.794,303.905 117.931,303.451 117.933 C 302.997 117.935,302.119 118.020,301.500 118.122 L 300.375 118.308 300.375 124.270 L 300.375 130.233 304.851 130.233 L 309.327 130.233 309.427 149.122 C 309.505 163.725,309.613 168.097,309.902 168.387 C 310.109 168.593,310.278 169.208,310.278 169.752 C 310.278 170.297,310.395 170.743,310.539 170.743 C 310.683 170.743,310.887 171.283,310.993 171.943 C 311.099 172.603,311.318 173.143,311.481 173.143 C 311.645 173.143,311.778 173.413,311.778 173.743 C 311.778 174.074,311.898 174.344,312.045 174.344 C 312.193 174.344,312.396 174.672,312.496 175.074 C 312.597 175.475,312.942 175.887,313.264 175.989 C 313.585 176.091,313.931 176.438,314.033 176.760 C 314.135 177.081,314.340 177.344,314.487 177.344 C 314.635 177.344,315.008 177.615,315.316 177.947 C 316.159 178.851,319.259 180.348,320.705 180.549 C 321.407 180.647,321.980 180.843,321.980 180.986 C 321.980 181.129,322.696 181.245,323.571 181.245 C 324.446 181.245,325.304 181.388,325.479 181.563 C 325.994 182.078,336.984 181.499,336.984 180.957 C 336.984 180.828,337.929 180.630,339.085 180.516 C 340.240 180.402,341.185 180.182,341.185 180.027 C 341.185 179.872,341.515 179.745,341.918 179.745 C 342.321 179.745,342.729 179.618,342.825 179.462 C 342.921 179.307,343.604 179.089,344.343 178.978 C 345.082 178.867,345.686 178.657,345.686 178.511 C 345.686 178.364,346.024 178.245,346.437 178.245 C 346.849 178.245,347.187 178.116,347.187 177.958 C 347.187 177.801,347.643 177.586,348.201 177.481 C 349.449 177.247,350.113 176.226,349.618 175.301 C 349.436 174.961,349.287 174.404,349.287 174.063 C 349.287 173.722,349.179 173.443,349.047 173.443 C 348.816 173.443,348.240 171.393,347.887 169.317 C 347.796 168.781,347.601 168.342,347.454 168.342 C 347.307 168.342,347.187 168.092,347.187 167.787 C 347.187 165.874,345.152 164.321,344.349 165.620 C 344.254 165.774,343.436 165.992,342.531 166.105 C 341.626 166.218,340.885 166.430,340.885 166.576 C 340.885 166.722,340.035 166.842,338.995 166.842 C 337.924 166.842,336.948 166.998,336.744 167.202 C 336.464 167.482,336.304 167.482,336.024 167.202 C 335.826 167.004,335.016 166.842,334.224 166.842 C 333.431 166.842,332.783 166.707,332.783 166.542 C 332.783 166.377,332.500 166.242,332.153 166.242 C 331.399 166.242,329.782 164.600,329.782 163.834 C 329.782 163.535,329.614 163.235,329.407 163.166 C 329.115 163.069,329.012 159.426,328.939 146.637 L 328.845 130.233 337.573 130.233 L 346.301 130.233 346.594 129.463 C 346.997 128.402,346.968 118.851,346.557 117.674 L 346.228 116.729 337.555 116.729 L 328.882 116.729 328.882 108.202 C 328.882 103.511,328.800 99.460,328.700 99.199 C 328.542 98.788,327.705 98.725,322.433 98.725 L 316.347 98.725 316.149 99.700 M221.912 118.519 C 221.807 118.690,221.128 118.830,220.405 118.830 C 219.682 118.830,219.016 118.949,218.926 119.095 C 218.836 119.240,218.020 119.452,217.113 119.566 C 216.206 119.679,215.386 119.898,215.291 120.051 C 215.196 120.204,214.856 120.330,214.536 120.330 C 214.216 120.330,213.953 120.450,213.953 120.597 C 213.953 120.743,213.481 120.952,212.903 121.060 C 212.326 121.169,211.851 121.353,211.850 121.469 C 211.848 121.585,211.290 121.947,210.610 122.273 C 209.929 122.599,209.223 123.105,209.040 123.398 C 208.858 123.691,208.535 123.931,208.323 123.931 C 207.916 123.931,204.651 127.108,204.651 127.505 C 204.651 127.634,204.310 128.131,203.893 128.610 C 203.476 129.090,203.057 129.786,202.960 130.158 C 202.864 130.529,202.665 130.833,202.518 130.833 C 202.371 130.833,202.251 131.020,202.251 131.249 C 202.251 131.477,202.049 132.051,201.802 132.524 C 201.556 132.997,201.353 133.747,201.352 134.191 C 201.351 134.635,201.230 135.073,201.082 135.164 C 200.148 135.742,200.110 148.237,201.043 148.237 C 201.169 148.237,201.350 148.720,201.446 149.310 C 201.651 150.576,202.302 152.138,202.624 152.138 C 202.749 152.138,202.855 152.374,202.860 152.663 C 202.870 153.178,203.073 153.515,204.428 155.251 C 205.501 156.627,208.373 159.337,208.766 159.344 C 209.917 159.367,209.855 160.092,208.606 161.230 C 207.980 161.800,202.844 166.912,202.059 167.745 C 201.669 168.160,201.350 168.666,201.350 168.870 C 201.350 169.075,201.215 169.242,201.050 169.242 C 200.885 169.242,200.750 169.501,200.750 169.817 C 200.750 170.134,200.581 170.449,200.375 170.517 C 199.299 170.875,199.932 179.145,201.035 179.145 C 201.208 179.145,201.350 179.385,201.350 179.678 C 201.350 180.227,202.327 181.245,202.854 181.245 C 203.017 181.245,203.151 181.371,203.151 181.525 C 203.151 181.679,203.410 181.887,203.727 181.988 C 204.247 182.153,204.196 182.282,203.202 183.321 C 202.172 184.397,201.371 185.361,200.312 186.797 C 200.068 187.127,199.865 187.633,199.860 187.922 C 199.854 188.211,199.737 188.447,199.598 188.447 C 198.636 188.447,197.940 198.263,198.880 198.576 C 199.083 198.644,199.250 199.026,199.250 199.425 C 199.250 199.824,199.376 200.150,199.530 200.150 C 199.684 200.150,199.901 200.438,200.013 200.790 C 200.444 202.151,204.388 205.623,205.945 206.014 C 206.389 206.125,206.752 206.337,206.752 206.484 C 206.752 206.631,207.014 206.752,207.334 206.752 C 207.654 206.752,207.995 206.879,208.091 207.034 C 208.187 207.190,208.872 207.408,209.613 207.519 C 210.354 207.630,211.034 207.841,211.124 207.987 C 211.214 208.133,211.742 208.252,212.296 208.252 C 212.850 208.252,213.348 208.385,213.403 208.547 C 213.458 208.709,215.095 208.933,217.040 209.044 C 218.985 209.154,220.648 209.359,220.734 209.499 C 220.939 209.831,235.559 209.830,235.559 209.498 C 235.559 209.358,237.011 209.155,238.785 209.046 C 240.559 208.938,242.056 208.715,242.111 208.551 C 242.166 208.386,242.664 208.252,243.218 208.252 C 243.772 208.252,244.298 208.135,244.387 207.991 C 244.475 207.848,245.097 207.643,245.768 207.536 C 246.439 207.428,247.218 207.219,247.500 207.071 C 247.782 206.923,248.552 206.579,249.212 206.307 C 251.117 205.520,251.884 205.129,252.310 204.726 C 252.528 204.520,252.869 204.351,253.068 204.351 C 253.268 204.351,253.626 204.081,253.863 203.751 C 254.101 203.421,254.472 203.151,254.687 203.151 C 255.200 203.151,258.269 200.024,258.514 199.251 C 258.619 198.920,258.833 198.650,258.990 198.650 C 259.146 198.650,259.509 198.143,259.795 197.524 C 260.081 196.905,260.400 196.332,260.505 196.249 C 260.881 195.952,261.665 193.205,261.665 192.188 C 261.665 191.616,261.800 191.148,261.965 191.148 C 262.149 191.148,262.266 189.747,262.266 187.547 C 262.266 185.346,262.149 183.946,261.965 183.946 C 261.800 183.946,261.666 183.440,261.667 182.821 C 261.669 181.598,260.795 178.845,260.406 178.845 C 260.273 178.845,260.165 178.634,260.165 178.376 C 260.165 177.634,256.103 173.822,255.071 173.595 C 254.572 173.485,254.164 173.271,254.164 173.119 C 254.164 172.968,253.901 172.843,253.581 172.843 C 253.261 172.843,252.918 172.712,252.819 172.552 C 252.720 172.392,251.969 172.172,251.150 172.063 C 250.332 171.954,249.662 171.748,249.662 171.604 C 249.662 171.460,249.217 171.343,248.672 171.343 C 248.128 171.343,247.553 171.213,247.394 171.055 C 247.236 170.897,245.454 170.674,243.433 170.560 C 241.413 170.446,239.760 170.238,239.760 170.098 C 239.760 169.957,238.283 169.842,236.477 169.842 C 234.671 169.842,233.122 169.726,233.034 169.583 C 232.945 169.441,229.595 169.225,225.589 169.104 C 218.429 168.889,217.705 168.818,218.339 168.401 C 218.701 168.162,220.644 165.151,220.935 164.378 C 221.143 163.822,227.186 163.923,227.407 164.486 C 227.537 164.819,233.375 164.819,233.580 164.487 C 233.666 164.347,235.050 164.147,236.654 164.041 C 238.258 163.936,239.708 163.713,239.876 163.545 C 240.043 163.378,240.491 163.241,240.870 163.241 C 241.250 163.241,241.560 163.121,241.560 162.975 C 241.560 162.829,242.168 162.618,242.911 162.506 C 243.653 162.395,244.261 162.177,244.261 162.022 C 244.261 161.867,244.464 161.740,244.711 161.740 C 244.959 161.740,245.161 161.620,245.161 161.474 C 245.161 161.327,245.605 161.124,246.146 161.022 C 246.688 160.921,247.325 160.568,247.563 160.239 C 247.800 159.909,248.132 159.640,248.300 159.640 C 248.605 159.640,249.052 159.242,251.313 156.958 C 252.945 155.310,253.263 154.917,253.263 154.551 C 253.263 154.379,253.372 154.239,253.506 154.239 C 253.771 154.239,254.764 152.147,254.764 151.587 C 254.764 151.395,254.890 151.238,255.045 151.238 C 255.200 151.238,255.422 150.596,255.537 149.812 C 255.653 149.029,255.883 148.300,256.049 148.193 C 256.467 147.923,256.490 138.663,256.074 138.391 C 255.900 138.277,255.666 137.713,255.554 137.137 C 255.302 135.844,254.695 134.434,254.390 134.434 C 254.266 134.434,254.164 134.226,254.164 133.973 C 254.164 133.476,253.315 132.014,252.829 131.674 C 252.310 131.311,253.264 131.189,258.017 131.009 C 260.549 130.913,262.743 130.759,262.893 130.666 C 263.043 130.573,263.166 128.007,263.166 124.964 L 263.166 119.430 250.713 119.430 C 243.498 119.430,238.260 119.316,238.260 119.159 C 238.260 118.505,222.307 117.880,221.912 118.519 M268.867 118.830 C 268.867 119.160,268.732 119.430,268.567 119.430 C 268.402 119.430,268.267 120.181,268.267 121.100 C 268.267 122.019,268.146 122.998,267.999 123.276 C 267.851 123.554,267.682 124.986,267.623 126.458 L 267.517 129.135 268.567 129.400 C 269.145 129.545,270.201 129.933,270.915 130.260 C 271.628 130.588,272.631 130.940,273.143 131.043 C 275.317 131.477,275.169 130.021,275.169 151.004 L 275.169 169.842 274.436 169.842 C 274.033 169.842,273.631 169.960,273.543 170.103 C 273.454 170.247,272.028 170.460,270.374 170.578 L 267.367 170.791 267.367 175.958 C 267.367 179.577,267.475 181.233,267.727 181.485 C 268.247 182.005,301.896 182.005,302.416 181.485 C 302.839 181.062,302.936 171.177,302.519 170.920 C 302.378 170.832,300.955 170.669,299.358 170.557 C 297.761 170.444,296.383 170.238,296.296 170.098 C 296.210 169.957,295.809 169.842,295.406 169.842 L 294.674 169.842 294.674 144.036 L 294.674 118.230 281.770 118.230 C 269.067 118.230,268.867 118.239,268.867 118.830 M231.808 131.433 C 231.910 131.598,232.391 131.733,232.876 131.733 C 233.361 131.733,233.758 131.862,233.758 132.019 C 233.758 132.177,234.226 132.394,234.798 132.501 C 235.430 132.619,235.907 132.913,236.014 133.249 C 236.111 133.554,236.421 133.876,236.703 133.966 C 239.149 134.742,240.146 144.784,237.941 146.437 C 237.830 146.519,237.648 146.884,237.534 147.246 C 237.421 147.609,237.065 147.990,236.744 148.092 C 236.422 148.194,236.159 148.403,236.159 148.557 C 236.159 148.711,235.956 148.837,235.709 148.837 C 235.461 148.837,235.259 148.962,235.259 149.113 C 235.259 149.265,234.855 149.478,234.362 149.587 C 233.869 149.695,233.388 149.908,233.294 150.061 C 233.200 150.213,232.801 150.338,232.408 150.338 C 232.015 150.338,231.610 150.473,231.508 150.638 C 231.406 150.803,230.123 150.938,228.657 150.938 C 227.191 150.938,225.908 150.803,225.806 150.638 C 225.704 150.473,225.357 150.338,225.034 150.338 C 224.712 150.338,224.213 150.212,223.927 150.059 C 223.640 149.906,223.203 149.705,222.956 149.611 C 221.909 149.216,220.255 147.845,220.255 147.374 C 220.255 147.229,220.053 146.942,219.805 146.737 C 219.557 146.531,219.355 146.042,219.355 145.650 C 219.355 145.257,219.220 144.936,219.055 144.936 C 218.549 144.936,218.677 138.552,219.203 137.544 C 219.449 137.071,219.652 136.448,219.653 136.159 C 219.654 135.870,219.790 135.634,219.955 135.634 C 220.120 135.634,220.255 135.464,220.255 135.256 C 220.255 135.047,220.674 134.541,221.187 134.130 C 221.699 133.719,222.290 133.221,222.501 133.023 C 222.711 132.825,223.238 132.574,223.673 132.465 C 224.107 132.356,224.536 132.147,224.627 132.000 C 224.717 131.853,225.189 131.733,225.674 131.733 C 226.160 131.733,226.557 131.598,226.557 131.433 C 226.557 131.257,227.601 131.133,229.090 131.133 C 230.483 131.133,231.706 131.268,231.808 131.433 M224.387 186.504 C 228.228 186.625,231.443 186.841,231.532 186.985 C 231.621 187.129,233.095 187.247,234.809 187.247 C 236.522 187.247,237.996 187.363,238.083 187.505 C 238.171 187.646,239.004 187.852,239.934 187.961 C 241.607 188.158,242.725 188.917,242.751 189.872 C 242.756 190.079,242.896 190.248,243.061 190.248 C 243.226 190.248,243.361 190.585,243.361 190.998 C 243.361 191.410,243.226 191.748,243.061 191.748 C 242.896 191.748,242.761 192.086,242.761 192.498 C 242.761 192.911,242.635 193.248,242.481 193.248 C 242.327 193.248,242.117 193.511,242.015 193.833 C 241.913 194.155,241.533 194.511,241.170 194.624 C 240.807 194.737,240.443 194.913,240.360 195.014 C 239.955 195.513,238.666 196.000,237.336 196.158 C 236.524 196.254,235.859 196.449,235.859 196.591 C 235.859 196.733,234.719 196.849,233.326 196.849 C 231.933 196.849,230.710 196.984,230.608 197.149 C 230.506 197.314,229.215 197.449,227.739 197.449 C 226.151 197.449,225.056 197.327,225.056 197.149 C 225.056 196.974,224.062 196.849,222.673 196.849 C 221.363 196.849,220.219 196.733,220.131 196.591 C 220.043 196.449,219.349 196.248,218.587 196.143 C 216.852 195.905,214.254 194.177,214.254 193.261 C 214.254 193.089,214.119 192.948,213.953 192.948 C 213.788 192.948,213.653 192.341,213.653 191.598 C 213.653 190.855,213.788 190.248,213.953 190.248 C 214.119 190.248,214.254 190.056,214.254 189.822 C 214.254 188.687,216.546 185.669,217.104 186.070 C 217.269 186.188,220.547 186.383,224.387 186.504 " stroke="none" fill="#2c2404" fill-rule="evenodd"></path><path id="path2" d="M111.217 87.766 C 110.678 88.174,110.681 88.188,111.292 88.142 C 111.642 88.116,111.928 87.921,111.928 87.708 C 111.928 87.236,111.915 87.237,111.217 87.766 M112.228 87.461 C 112.228 87.538,112.495 87.744,112.821 87.918 C 113.306 88.177,113.383 88.152,113.239 87.779 C 113.084 87.374,112.228 87.105,112.228 87.461 M116.795 89.311 C 117.324 89.846,118.635 90.135,118.335 89.651 C 118.244 89.503,117.980 89.454,117.749 89.543 C 117.518 89.631,117.329 89.587,117.329 89.445 C 117.329 89.303,117.093 89.097,116.804 88.988 C 116.308 88.801,116.307 88.818,116.795 89.311 M95.274 100.825 C 95.172 100.990,95.169 101.125,95.267 101.125 C 95.365 101.125,95.289 101.429,95.098 101.800 C 94.841 102.300,94.840 102.392,95.094 102.154 C 95.283 101.976,95.495 101.537,95.564 101.178 C 95.698 100.482,95.577 100.334,95.274 100.825 M71.784 124.313 C 64.991 131.117,57.599 138.493,55.356 140.703 C 52.266 143.749,51.366 144.803,51.640 145.054 C 51.908 145.301,51.947 145.290,51.790 145.013 C 51.659 144.780,51.868 144.507,52.346 144.289 C 52.768 144.097,53.113 143.756,53.113 143.531 C 53.113 143.307,53.451 142.969,53.863 142.781 C 54.276 142.593,54.614 142.336,54.614 142.209 C 54.614 141.742,80.821 115.856,81.112 116.036 C 81.282 116.141,81.320 116.071,81.199 115.875 C 81.081 115.685,81.128 115.529,81.303 115.529 C 81.477 115.529,81.587 115.417,81.545 115.280 C 81.504 115.143,82.126 114.391,82.927 113.610 C 83.728 112.829,84.327 112.134,84.259 112.066 C 84.191 111.998,78.577 117.509,71.784 124.313 M109.977 116.429 C 109.870 116.602,110.149 116.727,110.635 116.725 C 111.289 116.721,111.377 116.655,111.028 116.429 C 110.451 116.057,110.208 116.057,109.977 116.429 M104.503 129.644 C 104.705 129.967,104.969 130.233,105.089 130.233 C 105.452 130.233,105.011 129.391,104.557 129.217 C 104.209 129.083,104.199 129.158,104.503 129.644 M122.514 129.828 C 122.226 129.945,122.226 130.061,122.514 130.373 C 122.716 130.591,122.982 130.708,123.106 130.633 C 123.230 130.559,123.331 130.640,123.331 130.815 C 123.331 130.990,123.462 131.133,123.621 131.133 C 123.781 131.133,123.834 130.930,123.739 130.683 C 123.644 130.435,123.371 130.233,123.131 130.233 C 122.891 130.233,122.779 130.098,122.881 129.932 C 123.081 129.609,123.066 129.605,122.514 129.828 M123.962 131.817 C 124.193 132.066,124.471 132.216,124.581 132.150 C 124.690 132.083,124.841 132.199,124.915 132.406 C 124.989 132.614,125.128 132.712,125.224 132.624 C 125.517 132.359,125.023 131.827,124.262 131.589 C 123.632 131.392,123.595 131.421,123.962 131.817 M119.302 136.795 C 119.968 137.443,120.122 137.424,119.855 136.727 C 119.751 136.456,119.454 136.234,119.195 136.234 C 118.806 136.234,118.825 136.331,119.302 136.795 M166.246 137.923 C 166.255 138.439,166.765 139.002,166.951 138.701 C 167.052 138.537,166.934 138.236,166.688 138.032 C 166.443 137.828,166.244 137.779,166.246 137.923 M121.585 139.085 C 121.773 139.497,122.043 139.835,122.186 139.835 C 122.328 139.835,122.223 139.497,121.953 139.085 C 121.683 138.672,121.412 138.335,121.352 138.335 C 121.292 138.335,121.397 138.672,121.585 139.085 M167.451 139.113 C 167.469 139.605,168.281 140.477,168.456 140.193 C 168.551 140.040,168.361 139.674,168.035 139.378 C 167.709 139.083,167.446 138.964,167.451 139.113 M168.845 140.633 C 168.735 140.742,168.924 141.026,169.264 141.264 C 169.603 141.502,169.941 141.637,170.014 141.564 C 170.087 141.491,169.898 141.207,169.595 140.933 C 169.292 140.658,168.954 140.523,168.845 140.633 M135.934 142.386 C 135.676 142.697,135.665 142.836,135.897 142.836 C 136.082 142.836,136.234 142.701,136.234 142.536 C 136.234 142.371,136.377 142.236,136.552 142.236 C 136.727 142.236,136.773 142.391,136.656 142.582 C 136.522 142.798,136.573 142.847,136.793 142.711 C 137.156 142.487,136.986 141.935,136.553 141.935 C 136.418 141.935,136.139 142.138,135.934 142.386 M170.486 142.579 C 171.406 143.286,171.876 143.290,171.238 142.586 C 170.964 142.283,170.524 142.036,170.260 142.036 C 169.903 142.036,169.961 142.175,170.486 142.579 M171.987 144.079 C 172.906 144.787,173.376 144.791,172.738 144.086 C 172.465 143.783,172.024 143.536,171.760 143.536 C 171.403 143.536,171.461 143.675,171.987 144.079 M174.344 147.263 C 174.344 147.428,174.546 147.732,174.794 147.937 C 175.045 148.145,175.244 148.178,175.244 148.010 C 175.244 147.845,175.041 147.542,174.794 147.337 C 174.543 147.128,174.344 147.096,174.344 147.263 M50.832 154.464 C 50.951 154.670,50.909 154.839,50.740 154.839 C 50.570 154.839,50.509 155.041,50.604 155.289 C 50.699 155.536,50.875 155.739,50.995 155.739 C 51.288 155.739,51.190 154.610,50.871 154.320 C 50.731 154.193,50.714 154.257,50.832 154.464 M170.882 158.590 C 169.793 159.662,168.776 160.540,168.622 160.540 C 168.468 160.540,168.342 160.736,168.342 160.975 C 168.342 161.215,168.106 161.548,167.817 161.716 C 167.528 161.885,167.430 162.026,167.598 162.031 C 167.767 162.036,169.114 160.825,170.593 159.340 C 172.071 157.854,173.186 156.639,173.071 156.639 C 172.955 156.639,171.970 157.517,170.882 158.590 M116.129 168.632 C 116.129 168.791,116.433 169.081,116.804 169.275 C 117.476 169.628,117.476 169.626,116.908 168.986 C 116.273 168.271,116.129 168.205,116.129 168.632 M105.359 182.951 C 106.398 184.243,106.827 184.571,106.827 184.075 C 106.827 183.518,106.300 182.947,105.509 182.647 C 105.004 182.456,104.987 182.489,105.359 182.951 M79.699 183.899 C 79.595 184.067,79.656 184.295,79.835 184.405 C 80.296 184.691,80.594 184.300,80.209 183.915 C 79.993 183.699,79.826 183.694,79.699 183.899 M81.199 185.399 C 81.095 185.567,81.157 185.795,81.335 185.906 C 81.797 186.191,82.094 185.800,81.709 185.415 C 81.494 185.200,81.326 185.195,81.199 185.399 M116.508 212.247 C 115.974 212.608,115.535 212.992,115.533 213.100 C 115.526 213.454,116.962 212.630,117.302 212.085 C 117.708 211.435,117.709 211.435,116.508 212.247 " stroke="none" fill="#e44c34" fill-rule="evenodd"></path><path id="path3" d="" stroke="none" fill="#5c381c" fill-rule="evenodd"></path><path id="path4" d="" stroke="none" fill="#2c3820" fill-rule="evenodd"></path></g></svg>