<svg id="svg" version="1.1" xmlns="http://www.w3.org/2000/svg" xmlns:xlink="http://www.w3.org/1999/xlink" width="400" height="300" viewBox="0, 0, 400,300"><g id="svgg"><path id="path0" d="M81.508 0.439 C 81.600 0.680,81.927 0.957,82.233 1.054 C 82.539 1.151,82.871 1.487,82.971 1.800 C 83.070 2.114,83.408 2.451,83.721 2.551 C 84.034 2.650,84.372 2.988,84.471 3.301 C 84.571 3.614,84.908 3.952,85.221 4.051 C 85.535 4.150,85.872 4.488,85.971 4.801 C 86.071 5.114,86.408 5.452,86.722 5.551 C 87.035 5.651,87.372 5.988,87.472 6.302 C 87.571 6.615,87.909 6.952,88.222 7.052 C 88.535 7.151,88.873 7.489,88.972 7.802 C 89.072 8.115,89.409 8.453,89.722 8.552 C 90.036 8.652,90.373 8.989,90.473 9.302 C 90.572 9.616,90.910 9.953,91.223 10.053 C 91.536 10.152,91.874 10.490,91.973 10.803 C 92.072 11.116,92.410 11.453,92.723 11.553 C 93.036 11.652,93.374 11.990,93.473 12.303 C 93.573 12.616,93.910 12.954,94.224 13.053 C 94.537 13.153,94.874 13.490,94.974 13.803 C 95.073 14.117,95.411 14.454,95.724 14.554 C 96.037 14.653,96.375 14.991,96.474 15.304 C 96.574 15.617,96.911 15.955,97.224 16.054 C 97.538 16.153,97.875 16.491,97.974 16.804 C 98.074 17.117,98.411 17.455,98.725 17.554 C 99.038 17.654,99.375 17.991,99.475 18.305 C 99.574 18.618,99.912 18.955,100.225 19.055 C 100.538 19.154,100.876 19.492,100.975 19.805 C 101.075 20.118,101.412 20.456,101.725 20.555 C 102.039 20.655,102.376 20.992,102.476 21.305 C 102.575 21.619,102.913 21.956,103.226 22.056 C 103.539 22.155,103.877 22.493,103.976 22.806 C 104.075 23.119,104.413 23.456,104.726 23.556 C 105.039 23.655,105.377 23.993,105.476 24.306 C 105.576 24.619,105.913 24.957,106.227 25.056 C 106.540 25.156,106.877 25.493,106.977 25.806 C 107.076 26.120,107.414 26.457,107.727 26.557 C 108.040 26.656,108.378 26.994,108.477 27.307 C 108.577 27.620,108.914 27.958,109.227 28.057 C 109.541 28.156,109.878 28.494,109.977 28.807 C 110.077 29.120,110.414 29.458,110.728 29.557 C 111.041 29.657,111.378 29.994,111.478 30.308 C 111.577 30.621,111.915 30.958,112.228 31.058 C 112.541 31.157,112.879 31.495,112.978 31.808 C 113.078 32.121,113.415 32.459,113.728 32.558 C 114.042 32.658,114.379 32.995,114.479 33.308 C 114.578 33.622,114.916 33.959,115.229 34.059 C 115.542 34.158,115.880 34.496,115.979 34.809 C 116.078 35.122,116.416 35.459,116.729 35.559 C 117.042 35.658,117.380 35.996,117.479 36.309 C 117.579 36.622,117.916 36.960,118.230 37.059 C 118.543 37.159,118.880 37.496,118.980 37.809 C 119.079 38.123,119.417 38.460,119.730 38.560 C 120.043 38.659,120.381 38.997,120.480 39.310 C 120.580 39.623,120.917 39.961,121.230 40.060 C 121.544 40.159,121.881 40.497,121.980 40.810 C 122.080 41.123,122.417 41.461,122.731 41.560 C 123.044 41.660,123.381 41.997,123.481 42.311 C 123.580 42.624,123.918 42.961,124.231 43.061 C 124.544 43.160,124.882 43.498,124.981 43.811 C 125.081 44.124,125.418 44.462,125.731 44.561 C 126.045 44.661,126.382 44.998,126.482 45.311 C 126.581 45.625,126.919 45.962,127.232 46.062 C 127.545 46.161,127.883 46.499,127.982 46.812 C 128.081 47.125,128.419 47.462,128.732 47.562 C 129.045 47.661,129.383 47.999,129.482 48.312 C 129.582 48.625,129.919 48.963,130.233 49.062 C 130.546 49.162,130.883 49.499,130.983 49.812 C 131.082 50.126,131.420 50.463,131.733 50.563 C 132.046 50.662,132.384 51.000,132.483 51.313 C 132.583 51.626,132.920 51.964,133.233 52.063 C 133.547 52.162,133.884 52.500,133.983 52.813 C 134.083 53.126,134.420 53.464,134.734 53.563 C 135.047 53.663,135.384 54.000,135.484 54.314 C 135.583 54.627,135.921 54.964,136.234 55.064 C 136.547 55.163,136.885 55.501,136.984 55.814 C 137.084 56.127,137.421 56.465,137.734 56.564 C 138.048 56.664,138.385 57.001,138.485 57.314 C 138.584 57.628,138.922 57.965,139.235 58.065 C 139.548 58.164,139.888 58.508,139.990 58.830 C 140.092 59.152,140.272 59.415,140.390 59.415 C 140.508 59.415,140.955 59.697,141.384 60.042 L 142.163 60.669 141.374 61.494 C 140.940 61.948,139.891 63.118,139.044 64.093 C 138.196 65.068,137.048 66.341,136.493 66.922 C 133.197 70.370,128.381 75.619,128.515 75.619 C 128.646 75.619,140.653 63.018,151.816 51.166 C 153.372 49.514,155.803 46.945,157.218 45.457 C 158.632 43.970,160.870 41.604,162.191 40.201 C 163.511 38.798,166.000 36.167,167.722 34.354 C 169.444 32.541,171.938 29.910,173.264 28.507 C 184.559 16.558,193.941 6.674,198.050 2.394 C 198.132 2.308,198.665 1.735,199.234 1.119 L 200.268 0.000 140.803 0.000 C 88.758 0.000,81.360 0.055,81.508 0.439 M125.431 78.770 C 124.202 80.008,123.263 81.020,123.346 81.020 C 123.428 81.020,124.502 80.008,125.731 78.770 C 126.961 77.532,127.899 76.519,127.817 76.519 C 127.734 76.519,126.661 77.532,125.431 78.770 M120.769 83.796 L 119.280 85.371 120.855 83.882 C 122.319 82.499,122.568 82.221,122.344 82.221 C 122.297 82.221,121.588 82.929,120.769 83.796 M115.069 89.797 L 113.278 91.673 115.154 89.882 C 116.896 88.218,117.167 87.922,116.945 87.922 C 116.898 87.922,116.054 88.766,115.069 89.797 M109.819 95.349 L 107.877 97.374 109.902 95.433 C 111.017 94.365,111.928 93.453,111.928 93.407 C 111.928 93.186,111.622 93.467,109.819 95.349 M104.265 101.200 L 102.776 102.776 104.351 101.287 C 105.218 100.468,105.926 99.759,105.926 99.711 C 105.926 99.487,105.648 99.736,104.265 101.200 M97.816 107.952 L 95.874 109.977 97.899 108.036 C 99.014 106.968,99.925 106.056,99.925 106.010 C 99.925 105.789,99.619 106.071,97.816 107.952 M93.013 113.053 L 91.373 114.779 93.098 113.139 C 94.701 111.615,94.961 111.328,94.738 111.328 C 94.692 111.328,93.915 112.104,93.013 113.053 M87.022 119.280 C 85.792 120.518,84.854 121.530,84.936 121.530 C 85.019 121.530,86.092 120.518,87.322 119.280 C 88.551 118.042,89.490 117.029,89.407 117.029 C 89.325 117.029,88.251 118.042,87.022 119.280 M81.620 124.981 C 80.391 126.219,79.452 127.232,79.535 127.232 C 79.617 127.232,80.691 126.219,81.920 124.981 C 83.150 123.743,84.089 122.731,84.006 122.731 C 83.923 122.731,82.850 123.743,81.620 124.981 M75.619 131.283 C 74.389 132.521,73.451 133.533,73.533 133.533 C 73.616 133.533,74.689 132.521,75.919 131.283 C 77.149 130.045,78.087 129.032,78.004 129.032 C 77.922 129.032,76.848 130.045,75.619 131.283 M70.061 137.209 L 67.367 139.985 70.143 137.291 C 71.669 135.809,72.918 134.560,72.918 134.515 C 72.918 134.297,72.564 134.631,70.061 137.209 M64.675 142.832 L 62.283 145.386 64.811 142.922 C 66.202 141.567,67.278 140.417,67.203 140.367 C 67.128 140.318,65.990 141.427,64.675 142.832 M56.174 151.763 C 53.366 154.692,51.104 157.127,51.149 157.173 C 51.193 157.218,52.295 156.140,53.597 154.776 C 54.899 153.412,57.238 150.977,58.796 149.366 C 60.353 147.755,61.550 146.437,61.454 146.437 C 61.358 146.437,58.982 148.833,56.174 151.763 M200.545 149.672 C 199.497 150.339,49.766 299.829,49.956 300.019 C 50.023 300.086,68.754 281.450,91.580 258.607 C 135.645 214.510,156.179 194.209,155.334 195.575 C 155.182 195.821,172.474 213.315,206.885 247.725 C 235.364 276.204,258.665 299.633,258.665 299.790 C 258.665 299.969,275.722 300.075,304.426 300.075 C 343.706 300.075,350.188 300.015,350.188 299.650 C 350.188 299.416,337.663 286.657,322.356 271.297 C 307.048 255.936,290.791 239.552,286.229 234.887 C 281.667 230.223,265.935 214.370,251.270 199.659 C 236.605 184.948,219.407 167.630,213.053 161.175 C 206.699 154.721,201.365 149.441,201.200 149.443 C 201.035 149.445,200.740 149.548,200.545 149.672 " stroke="none" fill="#6c75f9" fill-rule="evenodd"></path><path id="path1" d="M198.159 2.232 C 197.026 3.459,194.024 6.632,191.488 9.283 C 188.952 11.934,186.953 14.104,187.047 14.104 C 187.140 14.104,188.472 12.792,190.007 11.189 C 191.542 9.586,194.149 6.867,195.799 5.147 C 197.449 3.427,198.935 1.865,199.100 1.675 C 201.345 -0.897,200.691 -0.510,198.159 2.232 M186.047 14.969 C 185.799 15.252,183.318 17.874,180.533 20.795 C 177.748 23.717,175.534 26.107,175.614 26.107 C 175.750 26.107,178.177 23.636,184.386 17.179 C 185.854 15.653,186.930 14.415,186.776 14.429 C 186.622 14.442,186.294 14.685,186.047 14.969 M174.894 26.679 C 174.804 26.923,168.683 33.420,162.217 40.135 C 160.906 41.497,159.910 42.611,160.003 42.611 C 160.170 42.611,161.918 40.820,167.892 34.528 C 169.542 32.789,171.963 30.251,173.272 28.887 C 174.580 27.523,175.503 26.407,175.322 26.407 C 175.141 26.407,174.949 26.529,174.894 26.679 M156.795 45.876 L 154.100 48.762 157.020 45.917 C 158.626 44.353,159.940 43.036,159.940 42.992 C 159.940 42.635,159.115 43.392,156.795 45.876 M151.681 51.388 L 149.287 53.863 151.763 51.470 C 154.062 49.247,154.375 48.912,154.157 48.912 C 154.111 48.912,152.997 50.026,151.681 51.388 M145.979 57.389 L 143.586 59.865 146.062 57.471 C 148.361 55.248,148.674 54.914,148.455 54.914 C 148.410 54.914,147.296 56.028,145.979 57.389 M140.895 62.706 C 139.421 64.186,138.276 65.437,138.350 65.484 C 138.424 65.532,139.692 64.321,141.168 62.793 C 142.644 61.265,143.788 60.015,143.712 60.015 C 143.636 60.015,142.368 61.226,140.895 62.706 M135.025 68.942 L 133.083 70.968 135.109 69.026 C 136.990 67.222,137.271 66.917,137.051 66.917 C 137.005 66.917,136.093 67.828,135.025 68.942 M130.075 74.194 L 127.682 76.669 130.158 74.276 C 132.457 72.053,132.770 71.718,132.551 71.718 C 132.506 71.718,131.392 72.832,130.075 74.194 M124.373 80.195 L 122.281 82.371 124.456 80.278 C 126.477 78.335,126.769 78.020,126.549 78.020 C 126.503 78.020,125.524 78.998,124.373 80.195 M119.130 85.671 C 117.900 86.909,116.962 87.922,117.044 87.922 C 117.127 87.922,118.200 86.909,119.430 85.671 C 120.659 84.434,121.598 83.421,121.515 83.421 C 121.433 83.421,120.359 84.434,119.130 85.671 M114.172 90.998 L 111.778 93.473 114.254 91.080 C 116.553 88.857,116.866 88.522,116.647 88.522 C 116.602 88.522,115.488 89.636,114.172 90.998 M107.869 97.599 L 105.776 99.775 107.952 97.682 C 109.149 96.532,110.128 95.553,110.128 95.507 C 110.128 95.287,109.812 95.579,107.869 97.599 M103.085 102.616 C 101.612 104.096,100.467 105.353,100.541 105.409 C 100.615 105.464,101.877 104.253,103.346 102.718 C 106.748 99.160,106.587 99.098,103.085 102.616 M97.449 108.491 C 96.005 109.987,94.824 111.314,94.824 111.441 C 94.824 111.567,94.992 111.490,95.199 111.269 C 95.405 111.048,96.643 109.756,97.951 108.398 C 99.258 107.040,100.270 105.893,100.201 105.850 C 100.132 105.807,98.893 106.996,97.449 108.491 M89.240 117.223 C 86.452 120.136,83.986 122.803,83.760 123.150 C 83.358 123.769,84.056 123.060,88.906 117.929 C 90.232 116.527,92.068 114.602,92.986 113.653 C 93.904 112.704,94.577 111.928,94.482 111.928 C 94.387 111.928,92.028 114.311,89.240 117.223 M78.133 128.957 C 72.872 134.520,69.065 138.512,64.848 142.887 C 63.310 144.483,62.140 145.934,62.249 146.110 C 62.358 146.286,62.272 146.381,62.056 146.321 C 61.841 146.261,60.383 147.579,58.815 149.251 C 51.968 156.548,50.411 158.140,50.121 158.140 C 49.911 158.140,49.812 180.608,49.812 228.832 C 49.812 270.710,49.923 299.484,50.083 299.425 C 50.504 299.269,174.990 174.944,174.725 174.944 C 174.596 174.944,173.796 175.653,172.947 176.519 C 160.231 189.507,131.911 217.212,132.163 216.417 C 132.307 215.964,132.201 215.752,131.761 215.613 C 131.432 215.508,131.082 215.167,130.983 214.854 C 130.883 214.541,130.546 214.203,130.233 214.104 C 129.919 214.004,129.582 213.667,129.482 213.353 C 129.383 213.040,129.045 212.703,128.732 212.603 C 128.419 212.504,128.081 212.166,127.982 211.853 C 127.883 211.540,127.545 211.202,127.232 211.103 C 126.919 211.003,126.581 210.666,126.482 210.353 C 126.382 210.039,126.038 209.700,125.716 209.598 C 125.394 209.495,125.131 209.306,125.131 209.177 C 125.131 209.047,111.088 194.898,93.923 177.734 C 76.759 160.569,62.716 146.429,62.716 146.310 C 62.716 146.191,62.884 145.911,63.091 145.689 C 63.297 145.466,64.074 144.576,64.816 143.711 C 65.559 142.846,66.572 141.708,67.067 141.182 C 68.671 139.477,74.540 133.195,75.577 132.074 C 76.131 131.474,77.616 129.899,78.877 128.575 C 82.418 124.858,83.253 123.931,83.062 123.931 C 82.965 123.931,80.747 126.193,78.133 128.957 M187.407 162.072 C 180.481 168.986,174.943 174.644,175.099 174.644 C 175.256 174.644,181.062 168.972,188.001 162.041 C 194.939 155.109,200.478 149.451,200.308 149.468 C 200.139 149.486,194.333 155.157,187.407 162.072 " stroke="none" fill="#d56392" fill-rule="evenodd"></path><path id="path2" d="M49.812 79.070 C 49.812 122.558,49.890 158.140,49.984 158.140 C 50.078 158.140,50.315 157.964,50.509 157.749 C 50.962 157.248,55.344 152.634,59.406 148.379 C 61.144 146.559,63.772 143.791,65.246 142.228 C 66.721 140.664,69.279 137.967,70.932 136.234 C 75.852 131.075,79.499 127.240,82.500 124.070 C 84.057 122.426,86.690 119.657,88.352 117.917 C 90.013 116.178,92.517 113.545,93.914 112.066 C 95.312 110.587,97.945 107.821,99.766 105.919 C 101.586 104.016,104.282 101.181,105.757 99.617 C 107.232 98.054,109.595 95.555,111.008 94.066 C 112.422 92.576,115.739 89.065,118.380 86.264 C 121.020 83.462,124.200 80.090,125.445 78.770 C 126.690 77.449,128.520 75.491,129.511 74.419 C 131.674 72.077,135.101 68.403,136.493 66.932 C 137.048 66.346,138.196 65.068,139.044 64.093 C 139.891 63.118,140.943 61.945,141.381 61.487 L 142.177 60.655 141.419 60.110 C 141.002 59.810,140.509 59.390,140.323 59.175 C 140.137 58.961,139.810 58.624,139.596 58.425 C 139.381 58.227,139.044 57.889,138.845 57.675 C 138.647 57.461,138.309 57.123,138.095 56.925 C 137.881 56.726,137.543 56.389,137.345 56.175 C 137.147 55.960,136.809 55.623,136.595 55.424 C 136.381 55.226,136.043 54.889,135.845 54.674 C 135.646 54.460,135.309 54.123,135.094 53.924 C 134.880 53.726,134.543 53.388,134.344 53.174 C 134.146 52.960,133.808 52.622,133.594 52.424 C 133.380 52.225,133.042 51.888,132.844 51.674 C 132.645 51.459,132.308 51.122,132.094 50.923 C 131.879 50.725,131.542 50.387,131.343 50.173 C 131.145 49.959,130.807 49.621,130.593 49.423 C 130.379 49.225,130.041 48.887,129.843 48.673 C 129.645 48.459,129.307 48.121,129.093 47.923 C 128.879 47.724,128.541 47.387,128.343 47.172 C 128.144 46.958,127.807 46.621,127.593 46.422 C 127.378 46.224,127.041 45.886,126.842 45.672 C 126.644 45.458,126.306 45.120,126.092 44.922 C 125.878 44.723,125.540 44.386,125.342 44.172 C 125.144 43.957,124.806 43.620,124.592 43.421 C 124.378 43.223,124.040 42.886,123.842 42.671 C 123.643 42.457,123.306 42.120,123.091 41.921 C 122.877 41.723,122.540 41.385,122.341 41.171 C 122.143 40.957,121.805 40.619,121.591 40.421 C 121.377 40.222,121.039 39.885,120.841 39.671 C 120.642 39.456,120.305 39.119,120.091 38.920 C 119.876 38.722,119.539 38.384,119.340 38.170 C 119.142 37.956,118.804 37.618,118.590 37.420 C 118.376 37.222,118.038 36.884,117.840 36.670 C 117.642 36.456,117.304 36.118,117.090 35.920 C 116.876 35.721,116.538 35.384,116.340 35.169 C 116.141 34.955,115.804 34.618,115.590 34.419 C 115.375 34.221,115.038 33.883,114.839 33.669 C 114.641 33.455,114.303 33.117,114.089 32.919 C 113.875 32.720,113.537 32.383,113.339 32.169 C 113.141 31.954,112.803 31.617,112.589 31.418 C 112.375 31.220,112.037 30.883,111.839 30.668 C 111.640 30.454,111.303 30.117,111.088 29.918 C 110.874 29.720,110.537 29.382,110.338 29.168 C 110.140 28.954,109.802 28.616,109.588 28.418 C 109.374 28.219,109.036 27.882,108.838 27.668 C 108.639 27.453,108.302 27.116,108.088 26.917 C 107.873 26.719,107.536 26.381,107.337 26.167 C 107.139 25.953,106.801 25.615,106.587 25.417 C 106.373 25.219,106.035 24.881,105.837 24.667 C 105.639 24.453,105.301 24.115,105.087 23.917 C 104.873 23.718,104.535 23.381,104.337 23.166 C 104.138 22.952,103.801 22.615,103.587 22.416 C 103.372 22.218,103.035 21.880,102.836 21.666 C 102.638 21.452,102.300 21.114,102.086 20.916 C 101.872 20.717,101.534 20.380,101.336 20.166 C 101.138 19.951,100.800 19.614,100.586 19.415 C 100.372 19.217,100.034 18.880,99.836 18.665 C 99.637 18.451,99.300 18.114,99.085 17.915 C 98.871 17.717,98.534 17.379,98.335 17.165 C 98.137 16.951,97.799 16.613,97.585 16.415 C 97.371 16.216,97.033 15.879,96.835 15.665 C 96.636 15.450,96.299 15.113,96.085 14.914 C 95.870 14.716,95.533 14.378,95.334 14.164 C 95.136 13.950,94.798 13.612,94.584 13.414 C 94.370 13.216,94.032 12.878,93.834 12.664 C 93.636 12.450,93.298 12.112,93.084 11.914 C 92.870 11.715,92.532 11.378,92.334 11.163 C 92.135 10.949,91.798 10.612,91.584 10.413 C 91.369 10.215,91.032 9.877,90.833 9.663 C 90.635 9.449,90.297 9.111,90.083 8.913 C 89.869 8.714,89.531 8.377,89.333 8.163 C 89.135 7.948,88.797 7.611,88.583 7.412 C 88.369 7.214,88.031 6.877,87.833 6.662 C 87.634 6.448,87.297 6.111,87.082 5.912 C 86.868 5.714,86.531 5.376,86.332 5.162 C 86.134 4.948,85.796 4.610,85.582 4.412 C 85.368 4.213,85.030 3.876,84.832 3.662 C 84.633 3.447,84.296 3.110,84.082 2.911 C 83.867 2.713,83.530 2.375,83.331 2.161 C 83.133 1.947,82.792 1.609,82.575 1.411 C 82.357 1.213,81.955 0.814,81.683 0.525 C 81.223 0.038,80.051 0.000,65.500 0.000 L 49.812 0.000 49.812 79.070 M215.454 163.691 C 216.014 164.269,216.539 164.741,216.622 164.741 C 216.704 164.741,216.314 164.269,215.754 163.691 C 215.194 163.113,214.668 162.641,214.586 162.641 C 214.503 162.641,214.894 163.113,215.454 163.691 M153.673 196.944 C 143.499 206.743,75.972 274.045,54.767 295.520 L 50.270 300.075 154.467 300.075 C 220.082 300.075,258.665 299.969,258.665 299.790 C 258.665 299.633,235.364 276.204,206.885 247.725 C 178.406 219.246,155.188 195.811,155.290 195.647 C 155.615 195.120,155.323 195.355,153.673 196.944 M294.232 243.028 C 295.186 244.185,296.474 245.433,296.474 245.201 C 296.474 245.083,295.837 244.384,295.057 243.648 C 294.278 242.913,293.907 242.633,294.232 243.028 " stroke="none" fill="#13a6fb" fill-rule="evenodd"></path><path id="path3" d="M195.189 5.776 L 193.398 7.652 195.274 5.861 C 196.305 4.876,197.149 4.032,197.149 3.985 C 197.149 3.764,196.853 4.034,195.189 5.776 M189.637 11.628 L 187.997 13.353 189.722 11.713 C 190.671 10.811,191.448 10.035,191.448 9.988 C 191.448 9.765,191.161 10.025,189.637 11.628 M183.937 17.629 L 181.995 19.655 184.021 17.713 C 185.902 15.909,186.184 15.604,185.963 15.604 C 185.917 15.604,185.005 16.515,183.937 17.629 M177.936 23.931 L 175.994 25.956 178.020 24.015 C 179.134 22.947,180.045 22.035,180.045 21.989 C 180.045 21.768,179.739 22.050,177.936 23.931 M173.143 28.957 C 171.914 30.195,170.975 31.208,171.058 31.208 C 171.140 31.208,172.214 30.195,173.443 28.957 C 174.673 27.719,175.611 26.707,175.529 26.707 C 175.446 26.707,174.373 27.719,173.143 28.957 M166.980 35.484 L 165.491 37.059 167.067 35.570 C 168.531 34.186,168.780 33.908,168.556 33.908 C 168.508 33.908,167.799 34.617,166.980 35.484 M162.181 40.585 L 160.390 42.461 162.266 40.670 C 163.297 39.684,164.141 38.841,164.141 38.794 C 164.141 38.572,163.845 38.843,162.181 40.585 M156.241 46.777 C 154.975 48.079,153.938 49.249,153.938 49.378 C 153.938 49.507,153.976 49.556,154.022 49.487 C 154.068 49.419,155.172 48.248,156.475 46.887 C 157.778 45.525,158.776 44.411,158.694 44.411 C 158.611 44.411,157.508 45.476,156.241 46.777 M150.938 52.363 C 149.875 53.436,149.136 54.298,149.296 54.278 C 149.585 54.244,153.260 50.413,153.004 50.413 C 152.931 50.413,152.001 51.290,150.938 52.363 M146.137 57.405 C 144.734 58.862,143.788 59.958,144.036 59.840 C 144.573 59.587,148.998 54.954,148.814 54.838 C 148.744 54.794,147.539 55.949,146.137 57.405 M139.974 63.991 L 138.485 65.566 140.060 64.077 C 140.926 63.258,141.635 62.549,141.635 62.502 C 141.635 62.278,141.357 62.527,139.974 63.991 M135.430 68.672 C 133.915 70.260,132.727 71.612,132.791 71.675 C 132.854 71.739,133.284 71.393,133.745 70.908 C 134.206 70.422,135.525 69.055,136.676 67.870 C 137.827 66.686,138.637 65.732,138.477 65.750 C 138.316 65.769,136.945 67.083,135.430 68.672 M129.325 75.244 C 127.618 77.018,125.136 79.617,123.810 81.020 C 122.484 82.423,120.313 84.719,118.985 86.122 C 110.074 95.537,105.736 100.126,103.383 102.620 C 101.902 104.191,99.727 106.489,98.550 107.727 C 97.373 108.965,95.951 110.465,95.392 111.062 C 94.832 111.658,93.428 113.149,92.273 114.375 C 91.118 115.601,88.215 118.683,85.821 121.224 C 83.428 123.765,80.373 127.000,79.032 128.413 C 77.692 129.826,76.139 131.474,75.582 132.074 C 74.355 133.394,68.322 139.848,67.067 141.182 C 66.572 141.708,65.559 142.846,64.816 143.711 C 64.074 144.576,63.297 145.466,63.091 145.689 C 62.884 145.911,62.716 146.191,62.716 146.310 C 62.716 146.429,76.759 160.569,93.923 177.734 C 111.088 194.898,125.131 209.047,125.131 209.177 C 125.131 209.306,125.394 209.495,125.716 209.598 C 126.038 209.700,126.382 210.039,126.482 210.353 C 126.581 210.666,126.919 211.003,127.232 211.103 C 127.545 211.202,127.883 211.540,127.982 211.853 C 128.081 212.166,128.419 212.504,128.732 212.603 C 129.045 212.703,129.383 213.040,129.482 213.353 C 129.582 213.667,129.919 214.004,130.233 214.104 C 130.546 214.203,130.883 214.541,130.983 214.854 C 131.082 215.167,131.432 215.508,131.761 215.613 C 132.201 215.752,132.307 215.964,132.163 216.417 C 132.056 216.756,133.970 215.091,136.417 212.717 C 138.864 210.344,141.681 207.617,142.676 206.657 C 151.626 198.025,184.792 164.595,184.644 164.356 C 184.539 164.187,184.593 164.135,184.764 164.240 C 185.060 164.423,200.056 149.842,199.816 149.604 C 199.752 149.541,196.552 152.583,192.706 156.365 C 188.859 160.147,185.550 163.239,185.354 163.236 C 185.120 163.233,185.141 163.140,185.413 162.968 C 185.846 162.693,185.667 162.333,184.607 161.351 C 184.393 161.153,184.055 160.815,183.857 160.601 C 183.658 160.387,183.321 160.049,183.106 159.851 C 182.892 159.652,182.555 159.315,182.356 159.100 C 182.158 158.886,181.820 158.549,181.606 158.350 C 181.392 158.152,181.054 157.814,180.856 157.600 C 180.657 157.386,180.320 157.048,180.106 156.850 C 179.891 156.651,179.554 156.314,179.355 156.100 C 179.157 155.885,178.819 155.548,178.605 155.349 C 178.391 155.151,178.053 154.813,177.855 154.599 C 177.657 154.385,177.319 154.047,177.105 153.849 C 176.891 153.651,176.553 153.313,176.355 153.099 C 176.156 152.885,175.819 152.547,175.605 152.349 C 175.390 152.150,175.053 151.813,174.854 151.599 C 174.656 151.384,174.318 151.047,174.104 150.848 C 173.890 150.650,173.552 150.312,173.354 150.098 C 173.156 149.884,172.818 149.546,172.604 149.348 C 172.390 149.150,172.052 148.812,171.854 148.598 C 171.655 148.384,171.318 148.046,171.103 147.848 C 170.889 147.649,170.552 147.312,170.353 147.097 C 170.155 146.883,169.817 146.546,169.603 146.347 C 169.389 146.149,169.051 145.811,168.853 145.597 C 168.654 145.383,168.317 145.045,168.103 144.847 C 167.888 144.648,167.551 144.311,167.352 144.097 C 167.154 143.882,166.816 143.545,166.602 143.346 C 166.388 143.148,166.050 142.810,165.852 142.596 C 165.654 142.382,165.316 142.044,165.102 141.846 C 164.888 141.648,164.550 141.310,164.352 141.096 C 164.153 140.882,163.816 140.544,163.602 140.346 C 163.387 140.147,163.050 139.810,162.851 139.596 C 162.653 139.381,162.315 139.044,162.101 138.845 C 161.887 138.647,161.549 138.309,161.351 138.095 C 161.153 137.881,160.815 137.543,160.601 137.345 C 160.387 137.147,160.049 136.809,159.851 136.595 C 159.652 136.381,159.315 136.043,159.100 135.845 C 158.886 135.646,158.549 135.309,158.350 135.094 C 158.152 134.880,157.814 134.543,157.600 134.344 C 157.386 134.146,157.048 133.808,156.850 133.594 C 156.651 133.380,156.314 133.042,156.100 132.844 C 155.885 132.645,155.548 132.308,155.349 132.094 C 155.151 131.879,154.813 131.542,154.599 131.343 C 154.385 131.145,154.047 130.807,153.849 130.593 C 153.651 130.379,153.313 130.041,153.099 129.843 C 152.885 129.645,152.547 129.307,152.349 129.093 C 152.150 128.879,151.813 128.541,151.599 128.343 C 151.384 128.144,151.047 127.807,150.848 127.593 C 150.650 127.378,150.312 127.041,150.098 126.842 C 149.884 126.644,149.546 126.306,149.348 126.092 C 149.150 125.878,148.812 125.540,148.598 125.342 C 148.384 125.144,148.046 124.806,147.848 124.592 C 147.649 124.378,147.312 124.040,147.097 123.842 C 146.883 123.643,146.546 123.306,146.347 123.091 C 146.149 122.877,145.811 122.540,145.597 122.341 C 145.383 122.143,145.045 121.805,144.847 121.591 C 144.648 121.377,144.311 121.039,144.097 120.841 C 143.882 120.642,143.545 120.305,143.346 120.091 C 143.148 119.876,142.810 119.539,142.596 119.340 C 142.382 119.142,142.044 118.804,141.846 118.590 C 141.648 118.376,141.310 118.038,141.096 117.840 C 140.882 117.642,140.544 117.304,140.346 117.090 C 140.147 116.876,139.810 116.538,139.596 116.340 C 139.381 116.141,139.044 115.804,138.845 115.590 C 138.647 115.375,138.309 115.038,138.095 114.839 C 137.881 114.641,137.543 114.303,137.345 114.089 C 137.147 113.875,136.809 113.537,136.595 113.339 C 136.381 113.141,136.043 112.803,135.845 112.589 C 135.646 112.375,135.309 112.037,135.094 111.839 C 134.880 111.640,134.543 111.303,134.344 111.088 C 134.146 110.874,133.808 110.537,133.594 110.338 C 133.380 110.140,133.042 109.802,132.844 109.588 C 132.645 109.374,132.308 109.036,132.094 108.838 C 131.879 108.639,131.542 108.302,131.343 108.088 C 131.145 107.873,130.807 107.536,130.593 107.337 C 130.379 107.139,130.041 106.801,129.843 106.587 C 129.645 106.373,129.307 106.035,129.093 105.837 C 128.879 105.639,128.541 105.301,128.343 105.087 C 128.144 104.873,127.807 104.535,127.593 104.337 C 127.378 104.138,127.041 103.801,126.842 103.587 C 126.644 103.372,126.306 103.035,126.092 102.836 C 125.878 102.638,125.540 102.301,125.342 102.088 C 123.036 99.612,115.137 91.823,114.933 91.823 C 114.785 91.823,114.581 91.958,114.479 92.123 C 114.377 92.288,114.178 92.423,114.036 92.423 C 113.786 92.423,114.755 91.206,116.579 89.229 C 118.571 87.070,123.262 82.044,124.531 80.709 C 125.274 79.928,126.751 78.362,127.813 77.229 C 128.876 76.096,130.424 74.460,131.254 73.593 C 132.084 72.727,132.688 72.018,132.596 72.018 C 132.505 72.018,131.033 73.470,129.325 75.244 " stroke="none" fill="#e47060" fill-rule="evenodd"></path><path id="path4" d="M200.444 0.225 C 200.437 0.463,198.569 2.504,194.047 7.214 C 190.916 10.475,188.059 13.483,180.796 21.163 C 177.991 24.130,174.547 27.763,173.144 29.237 C 168.498 34.117,168.360 34.263,159.340 43.803 C 154.506 48.915,154.320 49.112,150.657 52.997 C 149.430 54.299,146.256 57.657,143.605 60.459 C 140.954 63.262,137.839 66.564,136.684 67.798 C 135.529 69.032,134.111 70.531,133.533 71.129 C 132.956 71.727,130.998 73.812,129.182 75.764 C 127.367 77.715,125.274 79.946,124.531 80.721 C 123.315 81.990,118.896 86.717,116.579 89.229 C 114.755 91.206,113.786 92.423,114.036 92.423 C 114.178 92.423,114.377 92.288,114.479 92.123 C 114.581 91.958,114.785 91.823,114.933 91.823 C 115.137 91.823,123.036 99.612,125.342 102.088 C 125.540 102.301,125.878 102.638,126.092 102.836 C 126.306 103.035,126.644 103.372,126.842 103.587 C 127.041 103.801,127.378 104.138,127.593 104.337 C 127.807 104.535,128.144 104.873,128.343 105.087 C 128.541 105.301,128.879 105.639,129.093 105.837 C 129.307 106.035,129.645 106.373,129.843 106.587 C 130.041 106.801,130.379 107.139,130.593 107.337 C 130.807 107.536,131.145 107.873,131.343 108.088 C 131.542 108.302,131.879 108.639,132.094 108.838 C 132.308 109.036,132.645 109.374,132.844 109.588 C 133.042 109.802,133.380 110.140,133.594 110.338 C 133.808 110.537,134.146 110.874,134.344 111.088 C 134.543 111.303,134.880 111.640,135.094 111.839 C 135.309 112.037,135.646 112.375,135.845 112.589 C 136.043 112.803,136.381 113.141,136.595 113.339 C 136.809 113.537,137.147 113.875,137.345 114.089 C 137.543 114.303,137.881 114.641,138.095 114.839 C 138.309 115.038,138.647 115.375,138.845 115.590 C 139.044 115.804,139.381 116.141,139.596 116.340 C 139.810 116.538,140.147 116.876,140.346 117.090 C 140.544 117.304,140.882 117.642,141.096 117.840 C 141.310 118.038,141.648 118.376,141.846 118.590 C 142.044 118.804,142.382 119.142,142.596 119.340 C 142.810 119.539,143.148 119.876,143.346 120.091 C 143.545 120.305,143.882 120.642,144.097 120.841 C 144.311 121.039,144.648 121.377,144.847 121.591 C 145.045 121.805,145.383 122.143,145.597 122.341 C 145.811 122.540,146.149 122.877,146.347 123.091 C 146.546 123.306,146.883 123.643,147.097 123.842 C 147.312 124.040,147.649 124.378,147.848 124.592 C 148.046 124.806,148.384 125.144,148.598 125.342 C 148.812 125.540,149.150 125.878,149.348 126.092 C 149.546 126.306,149.884 126.644,150.098 126.842 C 150.312 127.041,150.650 127.378,150.848 127.593 C 151.047 127.807,151.384 128.144,151.599 128.343 C 151.813 128.541,152.150 128.879,152.349 129.093 C 152.547 129.307,152.885 129.645,153.099 129.843 C 153.313 130.041,153.651 130.379,153.849 130.593 C 154.047 130.807,154.385 131.145,154.599 131.343 C 154.813 131.542,155.151 131.879,155.349 132.094 C 155.548 132.308,155.885 132.645,156.100 132.844 C 156.314 133.042,156.651 133.380,156.850 133.594 C 157.048 133.808,157.386 134.146,157.600 134.344 C 157.814 134.543,158.152 134.880,158.350 135.094 C 158.549 135.309,158.886 135.646,159.100 135.845 C 159.315 136.043,159.652 136.381,159.851 136.595 C 160.049 136.809,160.387 137.147,160.601 137.345 C 160.815 137.543,161.153 137.881,161.351 138.095 C 161.549 138.309,161.887 138.647,162.101 138.845 C 162.315 139.044,162.653 139.381,162.851 139.596 C 163.050 139.810,163.387 140.147,163.602 140.346 C 163.816 140.544,164.153 140.882,164.352 141.096 C 164.550 141.310,164.888 141.648,165.102 141.846 C 165.316 142.044,165.654 142.382,165.852 142.596 C 166.050 142.810,166.388 143.148,166.602 143.346 C 166.816 143.545,167.154 143.882,167.352 144.097 C 167.551 144.311,167.888 144.648,168.103 144.847 C 168.317 145.045,168.654 145.383,168.853 145.597 C 169.051 145.811,169.389 146.149,169.603 146.347 C 169.817 146.546,170.155 146.883,170.353 147.097 C 170.552 147.312,170.889 147.649,171.103 147.848 C 171.318 148.046,171.655 148.384,171.854 148.598 C 172.052 148.812,172.390 149.150,172.604 149.348 C 172.818 149.546,173.156 149.884,173.354 150.098 C 173.552 150.312,173.890 150.650,174.104 150.848 C 174.318 151.047,174.656 151.384,174.854 151.599 C 175.053 151.813,175.390 152.150,175.605 152.349 C 175.819 152.547,176.156 152.885,176.355 153.099 C 176.553 153.313,176.891 153.651,177.105 153.849 C 177.319 154.047,177.657 154.385,177.855 154.599 C 178.053 154.813,178.391 155.151,178.605 155.349 C 178.819 155.548,179.157 155.885,179.355 156.100 C 179.554 156.314,179.891 156.651,180.106 156.850 C 180.320 157.048,180.657 157.386,180.856 157.600 C 181.054 157.814,181.392 158.152,181.606 158.350 C 181.820 158.549,182.158 158.886,182.356 159.100 C 182.555 159.315,182.892 159.652,183.106 159.851 C 183.321 160.049,183.658 160.387,183.857 160.601 C 184.055 160.815,184.393 161.153,184.607 161.351 C 185.667 162.333,185.846 162.693,185.413 162.968 C 185.142 163.139,185.121 163.233,185.353 163.236 C 185.703 163.241,186.481 162.502,195.553 153.563 C 198.986 150.181,200.226 149.137,200.814 149.137 C 201.436 149.137,209.120 141.618,240.756 110.053 C 262.301 88.556,295.732 55.236,315.047 36.009 C 334.431 16.714,350.171 0.815,350.177 0.525 C 350.187 0.026,346.426 0.000,275.319 0.000 C 234.141 0.000,200.447 0.101,200.444 0.225 " stroke="none" fill="#f37f23" fill-rule="evenodd"></path></g></svg>