<svg height="512pt" viewBox="-91 0 512 512" width="512pt" xmlns="http://www.w3.org/2000/svg"><path d="m164.875 53.875h13.375v15.523438h-13.375zm0 0" fill="#008adf"/><path d="m18.5 208.253906h158.5v280.078125h-158.5zm0 0" fill="#00ff8d"/><path d="m165 429h48.300781v59.332031h-48.300781zm0 0" fill="#00dd7b"/><path d="m235.4375 27-70.4375 77-.125 152 149.125-148-8-94.332031zm0 0" fill="#ebb100"/><path d="m165 88.5-.125 153.5-42.875 47-70.5-77zm0 0" fill="#ffda2d"/><path d="m16.667969 179 26.664062 23.332031 121.542969-132.933593v-42.398438l-132.335938-13.332031-19.347656 36.34375zm0 0" fill="#3aaaff"/><path d="m164.875 315.613281-47.875 46.386719 47.875 45zm0 0" fill="#3aaaff"/><path d="m319.121094 415.5.28125-84.570312-81.714844-81.714844 79.472656-79.472656-11.160156-73.691407-177.882812 177.882813-65.433594-65.433594 150.410156-150.40625c5.855469-5.859375 5.855469-15.355469 0-21.214844-5.859375-5.859375-15.355469-5.855468-21.214844 0l-150.40625 150.40625-12.367187-12.363281c-5.855469-5.859375-15.355469-5.859375-21.210938 0-5.859375 5.855469-5.859375 15.355469 0 21.210937l99.007813 99.011719-93.710938 93.714844 5.308594 79.542969 85.410156-85.410156 118.046875 118.050781c2.929688 2.929687 6.769531 4.394531 10.605469 4.394531 3.839844 0 7.679688-1.464844 10.609375-4.394531 5.855469-5.859375 5.855469-15.355469 0-21.214844l-118.050781-118.046875 70.140625-70.140625zm0 0" fill="#f3eee9"/><path d="m300 174.332031-76 83.335938 90 90zm0 0" fill="#ebb100"/><path d="m202 282.226562-37.125 39.800782v104.304687l90.125 72 59-19.664062-10.667969-87zm0 0" fill="#008adf"/><g fill="#e9dfda"><path d="m213.09375 36.878906c-5.859375-5.859375-15.355469-5.855468-21.214844 0l-27.003906 27.007813v42.425781l48.21875-48.21875c5.855469-5.859375 5.855469-15.355469 0-21.214844zm0 0"/><path d="m243.171875 479.828125-78.296875-78.292969v42.425782l57.082031 57.082031c2.929688 2.929687 6.769531 4.394531 10.605469 4.394531 3.839844 0 7.679688-1.464844 10.605469-4.394531 5.859375-5.855469 5.859375-15.355469.003906-21.214844zm0 0"/><path d="m237.6875 249.214844 79.472656-79.472656-11.160156-73.691407-141.125 141.125v84.851563l30.386719-30.386719 123.859375 123.859375.28125-84.570312zm0 0"/></g><path d="m285 0h-240c-24.8125 0-45 20.1875-45 45v422c0 24.8125 20.1875 45 45 45h240c24.8125 0 45-20.1875 45-45v-422c0-24.8125-20.1875-45-45-45zm15 467c0 8.285156-6.714844 15-15 15h-240c-8.285156 0-15-6.714844-15-15v-422c0-8.285156 6.714844-15 15-15h29.960938c8.28125 0 15 6.714844 15 15s6.714843 15 15 15h120c8.28125 0 15-6.714844 15-15s6.714843-15 15-15h30.039062c8.285156 0 15 6.714844 15 15zm0 0" fill="#00429b"/><path d="m285 0h-120.125v60h60.085938c8.28125 0 15-6.714844 15-15s6.714843-15 15-15h30.039062c8.285156 0 15 6.714844 15 15v422c0 8.285156-6.714844 15-15 15h-120.125v30h120.125c24.8125 0 45-20.1875 45-45v-422c0-24.8125-20.1875-45-45-45zm0 0" fill="#002659"/></svg>