<svg id="Capa_1" enable-background="new 0 0 512.123 512.123" height="512" viewBox="0 0 512.123 512.123" width="512" xmlns="http://www.w3.org/2000/svg"><g><g><path d="m470.951 210.646-2.661-11.975 2.193-2.773h.001c-3.358-17.144-8.575-33.62-15.468-49.203l-17.016-22.96 1.78-5.853c-18.976-30.515-44.79-56.328-75.304-75.304l-1.111 2.727-21.596-11.632-9.556-7.823c-14.569-6.165-29.851-10.876-45.754-13.991l-.671 1.399-12.728-1.317-4.626-2.889c-8.914-1.033-17.932-1.554-27.124-1.554-9.295 0-18.423.535-27.433 1.59l-2.796 2.348-12.593 2.706-2.315-2.285c-16.793 3.288-32.932 8.373-48.23 15.054l-4.527 4.632-22.114 13.558-3.143-2.528c-30.517 18.977-56.334 44.795-75.311 75.312l1.911 1.207-5.662 14.785-11.223 12.232c-7.025 15.765-12.341 32.418-15.744 49.795l1.718.877-1.315 10.763-3.148 5.864c-1.073 9.082-1.615 18.269-1.615 27.64 0 9.47.556 18.781 1.652 27.956l2.395 1.778 2.116 10.846-1.804 4.559c3.438 17.564 8.839 34.401 15.975 50.316h.001l9.487 10.047 8.294 15.78-3.039 1.879c18.975 30.515 44.791 56.334 75.306 75.31l2.533-1.917 22.502 13.236 4.495 4.233c15.373 6.736 31.598 11.857 48.489 15.164l1.299-1.347 14.581 2.255 1.564 1.831c9.089 1.075 18.317 1.625 27.695 1.625 8.991 0 17.818-.503 26.544-1.492l4.023-2.31 13.142-1.558.288 1.221c107.953-20.581 189.552-115.472 189.552-229.412 0-9.322-.565-18.508-1.625-27.541z" fill="#b3dafe"/><g><path d="m405.11 203.164c-5.306-4.066-11.909-6.306-18.593-6.306-6.685 0-13.288 2.239-18.593 6.306l-7.296 5.592c-19.753 15.141-43.221 24.983-67.864 28.463l-21.407 3.022c-12.929 1.825-22.679 13.049-22.679 26.106v86.999c0 43.522 16.35 84.402 44.351 115.49 104.097-23.536 181.831-116.583 181.831-227.788 0-1.58-.039-3.151-.071-4.723-22.634-4.092-44.1-13.556-62.384-27.57z" fill="#8ac9fe"/><path d="m93.508 249.835c0-95.532 36.323-180.664 92.966-235.841-13.322 3.206-26.203 7.533-38.531 12.917l-4.527 4.632-22.114 13.558-3.143-2.528c-30.517 18.977-56.334 44.795-75.311 75.312l1.911 1.207-5.662 14.785-11.223 12.232c-7.025 15.765-12.341 32.418-15.744 49.795l1.718.877-1.315 10.763-3.148 5.864c-1.073 9.082-1.615 18.269-1.615 27.64 0 9.47.556 18.781 1.652 27.956l2.395 1.778 2.116 10.846-1.804 4.559c3.438 17.564 8.839 34.401 15.975 50.316h.001l9.487 10.047 8.294 15.78-3.039 1.879c18.975 30.515 44.791 56.334 75.306 75.31l2.533-1.917 22.502 13.236 4.495 4.233c5.552 2.433 11.219 4.647 16.985 6.649-43.988-54.417-71.16-129.261-71.16-211.885z" fill="#8ac9fe"/><path d="m386.292 504.525-26.039-11.353c-55.617-24.248-91.574-79.152-91.574-139.825v-87c0-3.171 2.335-5.859 5.475-6.302l21.407-3.023c28.104-3.969 54.708-15.126 77.235-32.393l7.295-5.591c3.792-2.906 9.062-2.906 12.854 0l7.295 5.591c22.527 17.266 49.131 28.424 77.235 32.393l21.407 3.023c3.14.443 5.475 3.131 5.475 6.302v87c0 60.673-35.958 115.577-91.574 139.825l-26.039 11.353c-.145.063-.308.063-.452 0z" fill="#d7d0d6"/><circle cx="386.517" cy="358.307" fill="#bbec6c" r="82.796"/></g></g><g><path d="m499.929 252.618-17.753-2.507c.119-3.08.186-6.115.186-9.064 0-64.386-25.073-124.918-70.601-170.446s-106.06-70.601-170.447-70.601c-96.954 0-184.085 57.674-221.975 146.931-1.619 3.813.16 8.216 3.973 9.834 3.813 1.619 8.216-.159 9.834-3.973 2.112-4.975 4.392-9.842 6.823-14.603 13.516-10.065 28.718-18.971 45.256-26.608-7.148 21.233-12.515 43.9-15.946 67.465-18.214 3.922-34.633 8.501-48.814 13.666.693-3.179 1.448-6.344 2.278-9.49 1.057-4.005-1.333-8.108-5.338-9.165-4.006-1.056-8.109 1.334-9.166 5.339-5.29 20.049-7.972 40.791-7.972 61.651 0 64.386 25.073 124.918 70.601 170.446s106.061 70.602 170.446 70.602c24.437 0 48.526-3.651 71.673-10.853 12.839 11.788 27.721 21.59 44.268 28.805l26.265 11.45c.956.417 1.976.625 2.997.625s2.042-.208 2.997-.625l26.265-11.45c12.76-5.564 24.76-12.784 35.666-21.459 3.242-2.578 3.779-7.296 1.201-10.538-2.58-3.241-7.297-3.778-10.539-1.2-9.884 7.862-20.759 14.405-32.322 19.447l-23.267 10.144-23.267-10.144c-16.294-7.104-30.804-16.98-43.094-28.922-.06-.059-.121-.117-.183-.173-27.497-26.811-43.795-64.015-43.795-103.856v-86.014l20.431-2.884c29.322-4.141 57.244-15.852 80.749-33.867l7.295-5.591c1.097-.842 2.631-.842 3.729-.001l7.295 5.593c23.505 18.015 51.427 29.726 80.749 33.866l20.43 2.884v86.014c0 33.541-11.748 66.284-33.078 92.196-2.632 3.198-2.174 7.925 1.024 10.557 3.198 2.635 7.925 2.175 10.557-1.023 23.536-28.591 36.497-64.719 36.497-101.729v-87c-.001-6.867-5.128-12.769-11.928-13.729zm-84.595-57.692c19.164 4.317 36.046 9.365 49.905 15.036 1.397 10.218 2.123 20.595 2.123 31.086 0 2.128-.039 4.309-.105 6.518-17.573-3.808-34.405-10.606-49.679-20.072-.338-10.97-1.091-21.842-2.244-32.568zm-108.905-110.296c25.501 4.051 49.807 10.463 72.157 19.017 8.566 22.382 15.011 46.743 19.085 72.272-24.612-4.557-51.948-8-81.039-10.186-2.188-29.119-5.639-56.473-10.203-81.103zm-4.983 80.082c-19.456-1.146-39.589-1.743-60.131-1.743-20.54 0-40.675.594-60.131 1.74 2.332-29.63 5.994-57.495 10.786-82.256 16.11-1.909 32.616-2.9 49.345-2.9s33.236.991 49.346 2.9c4.791 24.762 8.453 52.628 10.785 82.259zm42.664-125.099c10.048 13.482 18.955 28.721 26.605 45.324-21.216-7.138-43.863-12.498-67.406-15.925-3.925-18.222-8.502-34.667-13.671-48.852 18.983 4.113 37.264 10.648 54.472 19.453zm53.219 71.933c16.604 7.661 31.863 16.602 45.422 26.71 8.805 17.21 15.34 35.493 19.454 54.479-14.194-5.173-30.64-9.756-48.877-13.683-3.447-23.562-8.843-46.254-15.999-67.506zm27.259-2.877c-10.831-6.101-22.348-11.62-34.434-16.529-4.905-12.088-10.426-23.586-16.504-34.398 9.682 7.021 18.885 14.845 27.505 23.465 8.607 8.608 16.42 17.796 23.433 27.462zm-152.187-91.546c5.669 13.854 10.715 30.728 15.031 49.883-15.111-1.615-30.526-2.453-46.117-2.453-15.592 0-31.006.84-46.117 2.455 4.315-19.149 9.359-36.018 15.025-49.87 10.203-1.407 20.585-2.138 31.091-2.138 10.491 0 20.869.726 31.087 2.123zm-79.413 3.075c-5.165 14.178-9.741 30.604-13.663 48.813-23.57 3.43-46.24 8.799-67.476 15.948 7.643-16.553 16.559-31.769 26.635-45.295 17.125-8.737 35.426-15.312 54.504-19.466zm-135.016 88.507c14.273-19.795 31.539-36.974 51.016-51.025-6.113 10.844-11.644 22.373-16.561 34.475-12.096 4.913-23.617 10.441-34.455 16.55zm45.979-5.021c22.374-8.572 46.712-14.997 72.248-19.053-4.563 24.627-8.011 51.984-10.199 81.099-29.118 2.187-56.471 5.639-81.102 10.202 4.056-25.537 10.481-49.874 19.053-72.248zm164.699 297.943c-9.08.592-18.233.916-27.336.916-16.729 0-33.235-.991-49.345-2.9-4.791-24.762-8.454-52.627-10.786-82.259 19.456 1.146 39.589 1.744 60.131 1.744 6.6 0 13.253-.066 19.864-.191v34.41c.001 16.669 2.609 32.913 7.472 48.28zm-92.455-4.162c-25.535-4.057-49.871-10.481-72.245-19.053-8.571-22.373-14.996-46.709-19.053-72.243 24.629 4.563 51.986 8.015 81.102 10.203 2.188 29.11 5.634 56.468 10.196 81.093zm-37.674 45.019c-10.09-13.536-19.017-28.766-26.668-45.336 21.235 7.147 43.904 12.515 67.471 15.945 3.926 18.225 8.507 34.659 13.678 48.845-18.987-4.113-37.271-10.649-54.481-19.454zm-118.096-153.123c14.189 5.171 30.625 9.754 48.853 13.681 3.43 23.568 8.798 46.237 15.947 67.472-16.574-7.653-31.808-16.581-45.346-26.674-8.805-17.209-15.341-35.493-19.454-54.479zm62.295 1.032c-1.909-16.11-2.9-32.616-2.9-49.345s.991-33.235 2.9-49.345c24.762-4.792 52.628-8.454 82.259-10.786-1.146 19.456-1.743 39.589-1.743 60.131s.597 40.675 1.744 60.132c-29.632-2.333-57.498-5.995-82.26-10.787zm-15.447-95.462c-1.615 15.111-2.454 30.525-2.454 46.117s.839 31.006 2.454 46.117c-19.155-4.316-36.028-9.363-49.883-15.031-1.397-10.218-2.123-20.595-2.123-31.086 0-10.424.721-20.814 2.138-31.092 13.851-5.666 30.72-10.71 49.868-15.025zm-9.225 178.504c10.816 6.091 22.312 11.605 34.38 16.507 4.902 12.066 10.415 23.562 16.506 34.377-9.664-7.012-18.852-14.825-27.458-23.432-8.606-8.604-16.417-17.789-23.428-27.452zm152.181 91.538c-5.669-13.855-10.715-30.729-15.032-49.886 15.111 1.615 30.525 2.456 46.117 2.456 10.916 0 21.906-.437 32.764-1.249 2.556 5.974 5.485 11.768 8.736 17.37-3.224 11.748-6.714 22.257-10.412 31.303-10.259 1.413-20.639 2.129-31.089 2.129-10.489 0-20.867-.727-31.084-2.123zm83.422-14.99c2.364 3.122 4.841 6.161 7.432 9.106-3.793 1.038-7.61 1.977-11.45 2.814 1.375-3.792 2.715-7.766 4.018-11.92zm.861-200.387-21.407 3.022c-6.799.96-11.927 6.862-11.927 13.729v37.588c-6.61.127-13.264.193-19.864.193-20.808 0-41.333-.648-61.195-1.884-1.236-19.862-1.884-40.387-1.884-61.196s.648-41.333 1.884-61.195c19.862-1.236 40.387-1.884 61.195-1.884 20.809 0 41.333.648 61.196 1.884 1.236 19.862 1.884 40.386 1.884 61.195 0 2.178-.009 4.424-.028 6.831-3.262.676-6.548 1.25-9.854 1.717zm81.015-36.51-7.294 5.591c-14.686 11.256-31.263 19.813-48.845 25.307.003-.994.006-1.974.006-2.936 0-20.541-.595-40.676-1.741-60.131 29.613 2.331 57.462 5.99 82.212 10.777.978 8.206 1.715 16.509 2.202 24.887l-4.56-3.496c-6.471-4.96-15.508-4.957-21.98.001z"/><path d="m447.482 301.799c2.772-3.077 2.525-7.819-.552-10.592-16.604-14.958-38.059-23.196-60.412-23.196-49.79 0-90.296 40.507-90.296 90.297 0 49.789 40.507 90.295 90.296 90.295 49.79 0 90.296-40.506 90.296-90.295 0-13.741-3.011-26.94-8.95-39.232-1.802-3.729-6.286-5.292-10.016-3.49s-5.292 6.286-3.491 10.016c4.948 10.24 7.456 21.244 7.456 32.707 0 41.518-33.778 75.295-75.296 75.295-41.519 0-75.296-33.777-75.296-75.295 0-41.519 33.778-75.297 75.296-75.297 18.639 0 36.528 6.869 50.372 19.341 3.078 2.772 7.821 2.526 10.593-.554z"/><path d="m417.099 321.595-43.33 57.282-10.247-8.196c-3.234-2.588-7.955-2.063-10.542 1.171-2.588 3.235-2.063 7.955 1.171 10.542l16.264 13.011c1.337 1.069 2.991 1.644 4.685 1.644.309 0 .62-.02.929-.058 2.009-.251 3.831-1.304 5.052-2.918l47.979-63.429c2.499-3.304 1.847-8.007-1.457-10.506-3.301-2.499-8.005-1.845-10.504 1.457z"/></g></g></svg>